<?xml version="1.0" standalone="no"?>
<!DOCTYPE svg PUBLIC "-//W3C//DTD SVG 1.1//EN" "http://www.w3.org/Graphics/SVG/1.1/DTD/svg11.dtd" >
<!--
2013-9-30: Created.
-->
<svg>
<metadata>
Created by iconfont
</metadata>
<defs>

<font id="iconfont" horiz-adv-x="1024" >
  <font-face
    font-family="iconfont"
    font-weight="500"
    font-stretch="normal"
    units-per-em="1024"
    ascent="896"
    descent="-128"
  />
    <missing-glyph />
    
    <glyph glyph-name="x" unicode="x" horiz-adv-x="1001"
d="M281 543q-27 -1 -53 -1h-83q-18 0 -36.5 -6t-32.5 -18.5t-23 -32t-9 -45.5v-76h912v41q0 16 -0.5 30t-0.5 18q0 13 -5 29t-17 29.5t-31.5 22.5t-49.5 9h-133v-97h-438v97zM955 310v-52q0 -23 0.5 -52t0.5 -58t-10.5 -47.5t-26 -30t-33 -16t-31.5 -4.5q-14 -1 -29.5 -0.5
t-29.5 0.5h-32l-45 128h-439l-44 -128h-29h-34q-20 0 -45 1q-25 0 -41 9.5t-25.5 23t-13.5 29.5t-4 30v167h911zM163 247q-12 0 -21 -8.5t-9 -21.5t9 -21.5t21 -8.5q13 0 22 8.5t9 21.5t-9 21.5t-22 8.5zM316 123q-8 -26 -14 -48q-5 -19 -10.5 -37t-7.5 -25t-3 -15t1 -14.5
t9.5 -10.5t21.5 -4h37h67h81h80h64h36q23 0 34 12t2 38q-5 13 -9.5 30.5t-9.5 34.5q-5 19 -11 39h-368zM336 498v228q0 11 2.5 23t10 21.5t20.5 15.5t34 6h188q31 0 51.5 -14.5t20.5 -52.5v-227h-327z" />
    

    
    <glyph glyph-name="gouwuche" unicode="&#13375;" d="M70.1213 678.0817h108.4838957584019c6.4549-1.452 29.6181-8.3873 30.6545-33.2555 0.039-0.9324 0.1429-1.8597 0.3108-2.7771l87.978-479.1791c0.2049-1.1142 0.5037-2.2085 0.8934-3.2718 0.6596-1.7988 6.8606-18.0428 21.3344-34.4267 20.1302-22.7856 46.4274-34.8304 76.0496-34.8304h501.65944293485046c11.039 0 19.9873 8.9479 19.9873 19.9864s-8.9483 19.9864-19.9873 19.9864H395.82585892786295c-39.0931 0-56.0853 34.2937-59.3292 41.7847l-22.3897 121.9503h529.3817838037171c61.9785 0 93.1906 58.8211 94.4888 61.3254 0.3628 0.6995 0.6846 1.42 0.9624 2.1575l59.8998 159.1011c0.063 0.1669 0.1229 0.3358 0.1819 0.5047 8.7085 25.1549 3.4718 43.2037-2.4554 53.9154-13.5004 24.3975-40.7021 31.2888-43.7591 31.9943-1.4741 0.3398-2.9811 0.5117-4.4941 0.5117H265.0821426751159c-2.6663 0-5.2047-0.5326-7.5312-1.479l-8.4276 45.8999c-2.8022 47.3539-43.8651 66.377-65.4053 69.8237-1.0443 0.1669-2.1007 0.2508-3.158 0.2508H70.12133271106305c-11.038 0-19.9873-8.9479-19.9873-19.9864C50.1341 687.0296 59.0834 678.0817 70.1213 678.0817zM265.0821 563.5873h680.3865937397878c4.4981-1.54 12.6469-5.4543 16.1997-12.0338 2.7912-5.1695 2.6753-12.2697-0.3428-21.1057l-59.2822-157.4622c-3.2569-5.5942-24.1676-38.9636-58.5557-38.9636H310.00752520644346c-1.0883 0-2.1476-0.1109-3.189-0.2778l-42.2031 229.8662C264.7713 563.6073 264.9242 563.5873 265.0821 563.5873zM406.4961 54.2956c-38.7833 0-70.3362-31.5516-70.3362-70.3333s31.5529-70.3333 70.3362-70.3333c38.7843 0 70.3362 31.5516 70.3362 70.3333S445.2804 54.2956 406.4961 54.2956zM406.4961-42.4238c-14.5497 0-26.3872 11.837-26.3872 26.3861s11.8375 26.3861 26.3872 26.3861c14.5507 0 26.3882-11.837 26.3882-26.3861S421.0468-42.4238 406.4961-42.4238zM828.7621 54.2956c-38.7833 0-70.3352-31.5516-70.3352-70.3333s31.5519-70.3333 70.3352-70.3333 70.3362 31.5516 70.3362 70.3333S867.5444 54.2956 828.7621 54.2956zM828.7621-42.4238c-14.5497 0-26.3862 11.837-26.3862 26.3861s11.8375 26.3861 26.3862 26.3861c14.5507 0 26.3872-11.837 26.3872-26.3861S843.3118-42.4238 828.7621-42.4238z"  horiz-adv-x="1000" />

    
    <glyph glyph-name="gengduo" unicode="&#13362;" d="M515.1568 316.3229m-107.1767 0a107.245 107.245 0 1 0 214.3535 0 107.245 107.245 0 1 0-214.3535 0ZM186.1294 316.3229m-107.1767 0a107.245 107.245 0 1 0 214.3535 0 107.245 107.245 0 1 0-214.3535 0ZM843.1899 316.3229m-107.1767 0a107.245 107.245 0 1 0 214.3535 0 107.245 107.245 0 1 0-214.3535 0Z"  horiz-adv-x="1000" />

    
    <glyph glyph-name="gouwuche1" unicode="&#983170;" d="M339.008 35.008q19.008 0 36-7.008t30.016-19.488 20-29.504 7.008-36-7.008-36-20-29.504-30.016-20-36-7.488q-20 0-36.512 7.488t-29.504 20-20 29.504-7.008 36 7.008 36 20 29.504 29.504 19.488 36.512 7.008zM755.008 32.992q19.008 0 36.512-7.008t30.016-19.488 20-29.504 7.488-36-7.488-36-20-29.504-30.016-20-36.512-7.488-36 7.488-29.504 20-20 29.504-7.488 36 7.488 36 20 29.504 29.504 19.488 36 7.008zM923.008 600.992q28 0 43.488-7.488t22.016-18.496 6.016-23.488-3.488-21.504-12.512-36.992-21.504-61.504-23.488-66.496-17.504-52q-12.992-40-32.992-55.488t-48.992-15.488l-524.992 0 15.008-90.016 504 0q48 0 48-40.992 0-20-9.504-34.496t-37.504-14.496l-524 0q-20 0-33.504 8.992t-22.496 23.488-14.496 31.488-8.512 32q-0.992 6.016-5.504 28.992t-11.008 57.504-14.496 76.992-16 85.504q-19.008 100.992-43.008 224.992l-75.008 0q-15.008 0-24.992 7.488t-16.512 18.016-8.992 22.496-2.496 22.016q0 20 13.504 32.992t36.512 12.992l100.992 0q20 0 32-6.016t19.008-15.008 10.016-19.008 4.992-16.992q2.016-8 4-22.496t4-29.504q3.008-18.016 6.016-38.016l684 0z"  horiz-adv-x="1024" />

    
    <glyph glyph-name="gouwuche2" unicode="&#58890;" d="M956.796928 509.728512c-5.210112 8.62208-15.937536 18.936832-37.443584 18.936832L320.672768 528.665344l-29.052928 62.746624c-1.723392 4.328448-4.094976 8.539136-7.560192 13.19936-2.072576 2.702336-4.31104 5.20704-7.97696 8.506368-2.386944 2.072576-4.907008 3.979264-7.561216 5.605376l-1.458176 0.82944c-2.686976 1.558528-5.472256 2.902016-8.323072 3.96288l-1.907712 0.631808c-2.801664 0.945152-5.654528 1.757184-8.572928 2.238464l-4.096 0.463872c-1.823744 0.264192-3.631104 0.447488-5.505024 0.447488L121.224192 627.297024c-31.491072 0-57.109504-25.603072-57.109504-57.091072 0-31.507456 25.618432-57.142272 57.109504-57.142272l80.820224 0 32.65024-70.573056c7.97696-23.348224 19.18464-43.478016 19.252224-43.478016l80.67072-181.128192c0.663552-1.456128 1.44384-2.799616 2.57024-4.608l15.056896-32.02048c5.787648-18.902016 20.810752-33.19808 39.232512-38.488064l-0.183296-2.453504 391.950336 0 17.959936 0.316416-0.232448 2.253824c18.238464 5.371904 33.08032 19.634176 38.851584 38.372352l97.984512 217.076736C944.508928 411.082496 976.976896 476.299008 956.796928 509.728512zM908.690432 412.83968l-92.978176-206.431232-2.5856 0.663552-4.160512-15.435776c-2.920448-10.898432-12.802048-18.507776-25.071616-18.507776-0.067584 0-0.115712 0.033792-0.18432 0.033792l-18.52416 0.53248 0.083968-0.864256L424.841216 172.830464l-17.544192 0.2304c-11.308032 0-21.241856 7.663616-24.193024 18.576384l-4.228096 15.420416-2.520064-0.648192-93.50656 207.460352c-0.116736 0.19968-10.612736 19.03616-17.626112 39.845888l-42.417152 91.881472L121.224192 545.597184c-13.565952 0-24.576 11.060224-24.576 24.608768 0 13.546496 11.010048 24.557568 24.576 24.557568l118.561792-0.13312 2.983936-0.297984c1.260544-0.233472 2.454528-0.596992 4.477952-1.227776 1.243136-0.463872 2.42176-1.077248 4.211712-2.072576 1.143808-0.71168 2.188288-1.542144 3.780608-2.85184 1.04448-0.96256 2.006016-2.057216 3.183616-3.549184 1.293312-1.772544 2.286592-3.514368 3.332096-6.084608l38.13888-82.397184 619.457536 0c7.661568 0 9.069568-2.336768 9.585664-3.217408C935.936 481.372928 924.274688 442.521344 908.690432 412.83968zM469.779456 107.496192c-44.02688 0-79.878144-35.852288-79.878144-79.89248 0-44.04224 35.851264-79.874048 79.878144-79.874048 44.058624 0 79.891456 35.831808 79.891456 79.874048C549.670912 71.643904 513.83808 107.496192 469.779456 107.496192zM469.779456-23.42016c-28.123136 0-51.007488 22.884352-51.007488 51.023872 0 28.141568 22.884352 51.040256 51.007488 51.040256 28.156928 0 51.05664-22.897664 51.05664-51.040256C520.836096-0.535808 497.936384-23.42016 469.779456-23.42016zM746.74688 107.496192c-44.0576 0-79.890432-35.852288-79.890432-79.89248 0-44.04224 35.831808-79.874048 79.890432-79.874048 44.04224 0 79.878144 35.831808 79.878144 79.874048C826.624 71.643904 790.788096 107.496192 746.74688 107.496192zM746.74688-23.42016c-28.153856 0-51.03616 22.884352-51.03616 51.023872 0 28.141568 22.882304 51.040256 51.03616 51.040256 28.141568 0 51.040256-22.897664 51.040256-51.040256C797.786112-0.535808 774.888448-23.42016 746.74688-23.42016z"  horiz-adv-x="1024" />

    
    <glyph glyph-name="gouwuche3" unicode="&#58921;" d="M891.113472 601.32224c16.929792 0 30.11584-2.491392 39.4496-7.468032 9.455616-4.97664 16.054272-11.071488 20.03968-18.418688 3.976192-7.340032 5.726208-15.05792 5.470208-23.395328-0.36352-8.337408-1.36192-15.434752-3.231744-21.402624l-11.328512-36.842496c-5.72416-18.540544-12.32384-38.951936-19.529728-61.229056-7.220224-22.27712-14.317568-44.306432-21.29408-66.20672-6.964224-21.906432-12.311552-39.200768-15.920128-51.774464-7.839744-26.50624-17.928192-44.925952-29.996032-55.256064s-27.003904-15.427584-44.55424-15.427584L779.348992 243.901184l-58.9824 0-77.284352 0-84.381696 0L333.449216 243.901184l13.56288-89.608192 457.859072 0c28.997632 0 43.557888-13.563904 43.557888-40.823808 0-13.314048-2.868224-24.764416-8.592384-34.345984-5.846016-9.583616-17.173504-14.4384-34.10432-14.4384l-43.557888 0-84.501504 0L573.261824 64.6848 466.978816 64.6848l-87.237632 0-49.901568 0c-12.201984 0-22.27712 2.988032-30.492672 8.962048s-14.937088 13.811712-20.417536 23.396352c-5.469184 9.583616-9.832448 20.035584-13.187072 31.362048-3.3536 11.328512-5.844992 21.907456-7.716864 31.860736-0.61952 3.980288-2.236416 13.56288-4.970496 28.870656l-9.965568 57.247744-13.186048 76.664832-14.560256 85.123072c-11.449344 67.081216-24.513536 141.75232-39.08608 224.013312l-68.072448 0c-9.07776 0-16.673792 2.491392-22.774784 7.468032-5.967872 4.97664-10.950656 10.949632-14.937088 17.92-3.974144 6.970368-6.720512 14.4384-8.204288 22.40512-1.49504 7.960576-2.24768 15.301632-2.24768 21.901312 0 13.314048 4.108288 24.270848 12.32384 32.857088 8.093696 8.58624 19.166208 12.94336 33.10592 12.94336l20.040704 0 18.035712 0 22.774784 0 30.869504 0c12.068864 0 21.779456-1.992704 29.120512-5.972992 7.2192-3.986432 12.944384-8.963072 17.173504-14.937088 4.22912-5.972992 7.341056-12.32384 9.091072-18.917376l4.593664-16.923648c1.130496-5.353472 2.369536-12.821504 3.6096-22.40512l3.608576-29.369344c1.871872-11.947008 3.6096-24.513536 5.481472-37.833728L891.113472 601.321216zM738.537472 35.812096c11.44832 0 22.519808-2.364416 33.10592-6.970368 10.573824-4.605952 19.663872-11.077632 27.247616-19.414016 7.596032-8.338432 13.698048-18.041856 18.169856-29.370368 4.605952-11.326464 6.842368-23.274496 6.842368-35.84 0-12.573696-2.236416-24.51968-6.842368-35.842048-4.471808-11.326464-10.573824-21.036032-18.169856-29.374464-7.583744-8.338432-16.673792-14.92992-27.247616-19.913728-10.586112-4.975616-21.6576-7.461888-33.10592-7.461888-11.582464 0-22.397952 2.486272-32.730112 7.461888-10.330112 4.983808-19.166208 11.57632-26.76224 19.913728s-13.683712 18.048-18.167808 29.374464c-4.608 11.322368-6.844416 23.268352-6.844416 35.842048 0 12.565504 2.236416 24.513536 6.844416 35.84 4.484096 11.328512 10.571776 21.031936 18.167808 29.370368 7.596032 8.336384 16.432128 14.808064 26.76224 19.414016C716.13952 33.44768 726.955008 35.812096 738.537472 35.812096M360.696832 37.805824c11.449344 0 22.398976-2.364416 32.608256-6.970368 10.330112-4.605952 19.408896-11.077632 27.259904-19.416064 7.960576-8.336384 13.928448-18.048 18.169856-29.36832 4.22912-11.328512 6.34368-23.274496 6.34368-35.848192 0-12.565504-2.11456-24.513536-6.34368-35.84-4.242432-11.322368-10.20928-21.031936-18.169856-29.370368-7.851008-8.336384-16.929792-14.936064-27.259904-19.91168-10.20928-4.977664-21.158912-7.468032-32.608256-7.468032-12.189696 0-23.15264 2.490368-33.227776 7.468032-9.954304 4.975616-18.911232 11.57632-26.76224 19.91168-7.83872 8.338432-13.928448 18.048-18.168832 29.370368-4.230144 11.326464-6.344704 23.274496-6.344704 35.84 0 12.573696 2.11456 24.51968 6.344704 35.848192 4.241408 11.32032 10.330112 21.031936 18.168832 29.36832 7.851008 8.338432 16.807936 14.810112 26.76224 19.416064C337.544192 35.441408 348.507136 37.805824 360.696832 37.805824"  horiz-adv-x="1024" />

    
    <glyph glyph-name="gengduo1" unicode="&#58888;" d="M64 364.23l896 0 0-128-896 0 0 128ZM448 748.23l128 0 0-896-128 0 0 896Z"  horiz-adv-x="1024" />

    
    <glyph glyph-name="ttpodicon" unicode="&#58910;" d="M429.116 24.321c0-46.519 37.856-84.375 84.375-84.375s84.375 37.856 84.375 84.375-37.856 84.375-84.375 84.375-84.375-37.856-84.375-84.375zM429.116 277.446c0-46.519 37.856-84.375 84.375-84.375s84.375 37.856 84.375 84.375-37.856 84.375-84.375 84.375-84.375-37.856-84.375-84.375zM429.116 530.571c0-46.519 37.856-84.375 84.375-84.375s84.375 37.856 84.375 84.375-37.856 84.375-84.375 84.375-84.375-37.856-84.375-84.375z"  horiz-adv-x="1024" />

    
    <glyph glyph-name="man" unicode="&#59009;" d="M725.36 241.534c65.442 58.59 106.64 143.712 106.64 238.466 0 176.73-143.27 320-320 320-176.73 0-320-143.27-320-320 0-94.754 41.196-179.876 106.64-238.466-176.236-80.908-298.64-258.914-298.64-465.534h128c0 212.078 171.922 384 384 384 212.080 0 384-171.922 384-384h128c0 206.618-122.402 384.626-298.64 465.534zM511.998 672c106.042 0 192.002-85.96 192.002-192 0-106.038-85.96-192-192.002-192-106.038 0-191.998 85.962-191.998 192 0 106.040 85.96 192 191.998 192z"  horiz-adv-x="1024" />

    
    <glyph glyph-name="gengduo2" unicode="&#59267;" d="M511.998465 568.925892c49.504484 0 89.64367 40.137139 89.64367 89.641623s-40.139186 89.641623-89.64367 89.641623c-49.502437 0-89.6406-40.137139-89.6406-89.641623S462.495004 568.925892 511.998465 568.925892zM511.998465 389.641623c-49.502437 0-89.6406-40.138162-89.6406-89.642646s40.138162-89.641623 89.6406-89.641623c49.504484 0 89.64367 40.137139 89.64367 89.641623S561.502949 389.641623 511.998465 389.641623zM511.998465 31.075131c-49.502437 0-89.6406-40.09416-89.6406-89.642646 0-49.503461 40.138162-89.641623 89.6406-89.641623 49.504484 0 89.64367 40.138162 89.64367 89.641623C601.641111-9.019029 561.502949 31.075131 511.998465 31.075131z"  horiz-adv-x="1024" />

    
    <glyph glyph-name="shoucang" unicode="&#58892;" d="M678.143483 209.055708 960.471616 395.320972 612.025623 395.526657 513.015631 751.28622 414.007687 395.526657 65.573973 395.320972 348.932576 208.547125 241.652224-143.040419 513.695107 88.655548 798.156834-143.029162Z"  horiz-adv-x="1024" />

    
    <glyph glyph-name="shoucang1" unicode="&#58884;" d="M512 727.482071c-9.573029 0-19.145036-7.357572-26.40744-22.071691l-94.694709-191.872982c-14.523785-29.42824-52.979632-57.368592-85.456301-62.087057l-211.743542-30.768771c-32.476669-4.719488-39.821961-27.322275-16.320711-50.228985l153.219637-149.352563c23.500227-22.907733 38.188764-68.11433 32.641421-100.460016l-36.170804-210.888058c-4.021593-23.445992 4.971222-37.235043 21.288862-37.235043 6.194072 0 13.447267 1.989307 21.439288 6.191003l189.389418 99.567693c14.523785 7.634888 33.669844 11.453866 52.81488 11.453866s38.291095-3.818979 52.81488-11.453866l189.389418-99.567693c7.994068-4.202719 15.244192-6.191003 21.439288-6.191003 16.314571 0 25.309432 13.791098 21.288862 37.235043L760.761644 120.641029c-5.547343 32.345686 9.141194 77.552284 32.641421 100.460016l153.219637 149.352563c23.50125 22.906709 16.155958 45.51052-16.320711 50.228985l-211.743542 30.768771c-32.476669 4.719488-70.932516 32.658817-85.456301 62.087057L538.40744 705.41038C531.145036 720.1245 521.573029 727.482071 512 727.482071L512 727.482071z"  horiz-adv-x="1024" />

    
    <glyph glyph-name="shoucang2" unicode="&#59020;" d="M511.089257 770.458885c248.489444 0 449.939549-205.282387 449.939549-458.498482S759.578702-146.538079 511.089257-146.538079 61.148685 58.743284 61.148685 311.960403 262.59879 770.458885 511.089257 770.458885L511.089257 770.458885zM340.693426 256.171796c-1.52575-6.691399-2.215458-13.761422-3.38305-20.74958L317.093938 110.909387c-2.600221-18.587334-7.057743-30.442336 4.524037-47.745421 1.605567-2.379187 2.653433-3.487428 4.616134-5.487991 2.029216-2.081405 3.078105-2.947122 5.359055-4.717442 5.850242-4.501524 14.432711-8.124028 22.418592-8.124028 11.673877 0 17.629519 1.662873 27.048029 7.231705 1.445932 0.864694 2.998287 1.676176 4.524037 2.608407 7.507998 4.663206 15.560394 8.286734 23.14821 12.895705 9.18008 5.596462 18.677385 10.273994 28.003797 15.585977 1.697665 0.973164 2.785439 1.676176 4.562922 2.568499 1.857301 0.918929 2.812045 1.635243 4.576225 2.541893l60.305481 33.592073c6.393617 3.487428 4.484128 3.298116 13.96813-2.311649l51.191916-28.441772c1.565658-0.838088 2.891863-1.702782 4.576225-2.555196l11.514241-6.502088c0.954745-0.540306 1.52575-0.743944 2.493797-1.284249 1.061169-0.567935 1.074472-0.689708 2.095731-1.257643 0.954745-0.554632 1.485841-0.729617 2.453888-1.325182l23.201421-12.841469c1.697665-0.959861 3.038196-1.852184 4.735861-2.812045l18.585287-10.341532c15.414061-8.461719 27.101241-10.017144 43.219337-3.176342 1.857301 0.797156 4.722558 2.568499 6.314823 3.75758 5.850242 4.420683 10.718109 9.827833 13.889335 16.815991 1.061169 2.338255 1.89721 5.082762 2.586918 7.54279 2.122337 7.556093 1.127683 15.19405-0.079818 22.750143l-4.987594 31.4155c-0.451278 2.987031-1.074472 6.732331-1.657756 10.178827-0.556679 3.203972-1.074472 6.907317-1.737574 10.544147-3.078105 17.140379-5.505387 34.68701-8.317433 51.773154-2.281973 13.855566-5.054109 28.022217-6.884804 41.783639-0.491187 3.704368-1.39272 7.05672-1.684362 10.598382 3.236718 2.203178 13.0799 13.112646 16.541745 16.654308l6.03546 6.151094c8.330736 9.638521 17.735943 18.492166 26.649963 27.576055 1.499144 1.541099 2.706645 2.744507 4.112668 4.298909 0.053212 0.067538 0.13303 0.162706 0.198521 0.230244l2.785439 3.095501c8.317433 9.299807 17.987676 18.154475 26.557866 27.251667l2.719948 2.744507c0.079818 0.094144 0.318248 0.352017 0.398066 0.446162l4.03285 4.379751c6.646374 6.745634 22.338774 21.520129 26.464745 27.765367 0.60989 0.918929 1.061169 1.608637 1.657756 2.541893 14.432711 22.926152 3.568269 54.787814-22.033829 63.534012-6.141884 2.095731-32.845059 6.110161-41.653679 7.178493l-70.585615 10.8143c-4.351098 0.648776-9.312086 1.500167-14.034645 2.24411l-28.255531 4.298909c-7.494695 1.297552-6.115278-0.026606-9.458419 6.907317l-20.866237 44.920072c-1.89721 3.75758-3.316535 7.394411-5.213745 11.232832l-10.426467 22.479991c-4.77577 11.382235-11.04966 22.168905-15.706727 33.646308l-5.227048 11.219529c-3.343141 6.974855-6.420223 15.640212-11.18269 21.696138-2.825348 3.568269-4.524037 5.352915-8.211009 8.178263-19.141966 14.70798-45.766346 10.273994-60.132542-8.665357-3.608178-4.745071-16.714683-33.280987-20.50808-41.892109-4.510734-10.246365-12.217253-25.035186-15.945157-34.254152-3.634784-8.975419-8.383948-17.005302-12.005428-25.940812l-19.712971-42.284035c-4.112668-7.988951 0-5.89322-16.821107-8.326643l-53.80544-8.380878c-3.846608-0.635473-6.844895-0.959861-10.532891-1.582031l-43.073005-6.582929c-2.162246-0.311085-3.409656-0.635473-5.359055-0.905626-9.100262-1.270946-28.945239-3.500731-36.32123-6.678096-9.909697-4.285606-17.602913-11.463076-22.511713-21.195741-0.862647-1.717108-1.101077-2.703575-1.804089-4.514827-4.974291-12.706393-2.228761-28.617781 5.571902-39.47199 4.974291-6.92062 17.696034-18.844184 24.382317-25.657356l8.953929-9.543354c1.140986-1.162476 1.977028-2.013867 3.116991-3.176342l22.206768-22.777773c9.803273-11.057847 22.418592-21.898753 31.54546-32.767288 0.649799-0.77055 0.941442-1.068332 1.61887-1.757017 4.204765-4.257977 8.092305-8.232498 12.283768-12.503778C331.181795 265.647611 337.523223 258.335065 340.693426 256.171796L340.693426 256.171796z"  horiz-adv-x="1024" />

    
    <glyph glyph-name="iconfontren" unicode="&#58899;" d="M772.016477 115.977823c-39.228443 39.229466-85.763292 68.49807-136.530536 86.546122 26.774807 13.283538 51.500954 30.976502 73.254398 52.729945 52.55189 52.550867 81.494059 122.422214 81.494059 196.74085s-28.941146 144.189983-81.494059 196.741873c-52.550867 52.550867-122.422214 81.493036-196.74085 81.493036s-144.189983-28.942169-196.741873-81.493036c-52.55189-52.550867-81.494059-122.422214-81.494059-196.741873s28.941146-144.189983 81.494059-196.74085c21.753443-21.753443 46.480614-39.446407 73.256444-52.729945-50.76929-18.049075-97.303116-47.316655-136.532583-86.546122-66.188468-66.187445-104.009865-153.166425-107.422591-246.208495l48.730864 0c3.387144 80.028685 36.140105 154.783249 93.129051 211.770148 55.771211 55.771211 128.557958 88.326675 206.650547 92.867084 6.27389-0.418532 12.582573-0.645706 18.929118-0.645706 6.345522 0 12.656251 0.227174 18.929118 0.645706 78.091566-4.54041 150.880359-37.095873 206.650547-92.867084 56.987922-56.986899 89.741907-131.741463 93.129051-211.770148l48.730864 0C876.027365-37.188602 838.204945 49.790378 772.016477 115.977823zM282.466792 451.995763c0 126.564557 102.96814 229.53372 229.53372 229.53372 126.564557 0 229.53372-102.969163 229.53372-229.53372 0-120.304993-93.040023-219.280192-210.942293-228.77545-6.170536 0.304945-12.369725 0.460488-18.591427 0.460488-6.222725 0-12.420891-0.155543-18.59245-0.460488C375.505791 232.715571 282.466792 331.69077 282.466792 451.995763z"  horiz-adv-x="1024" />

    
    <glyph glyph-name="gengduo3" unicode="&#58915;" d="M479.292576 748.834378c-230.53349 0-417.417855-186.899714-417.417855-417.433204 0-230.544747 186.884364-417.411715 417.417855-417.411715 230.537584 0 417.421948 186.866968 417.421948 417.411715C896.714524 561.934664 709.830159 748.834378 479.292576 748.834378zM666.868695 313.263072 507.339352 313.263072l0-158.794609-55.377238 0L451.962114 313.263072 293.167504 313.263072l0 56.110949 158.795633 0L451.963137 528.169653l55.377238 0 0-158.795633 159.52832 0L666.868695 313.263072z"  horiz-adv-x="1024" />

    
    <glyph glyph-name="ren" unicode="&#58928;" d="M857.805864 82.659997c-37.021172 86.764086-105.755626 155.599847-193.168488 193.163371-18.34788 7.887644-36.710087 13.985526-55.066153 18.358113 21.852704 9.612938 41.512463 24.026206 58.56279 41.079604C707.906855 375.03495 728.444611 422.668831 728.444611 479.485861c0 56.80782-20.538779 105.317651-60.310597 145.091516-39.771819 39.773865-87.406722 60.313667-144.219659 60.313667-56.81396 0-104.668875-20.324908-145.094586-60.313667-39.989783-39.559994-60.310597-88.283696-60.310597-145.091516 0-56.81703 20.23588-104.758925 60.310597-144.224776 17.61417-17.35118 37.585013-31.466666 59.436694-41.079604-19.22997-4.372587-37.615713-10.414187-55.940057-18.358113-86.562495-37.508265-156.026566-106.809631-192.294584-193.163371-18.799158-44.76146-28.843932-91.780333-28.843932-140.728138l0-31.466666 724.600049 0 0 31.466666C885.775892-9.120336 876.723725 38.318092 857.805864 82.659997zM422.521083 378.093613c-28.189016 28.632107-41.954531 62.057381-41.954531 101.392248 0 39.326681 14.201443 73.198116 41.954531 101.383038 28.189016 28.632107 62.059428 42.832528 101.392248 42.832528 39.33282 0 73.201186-14.199397 101.391225-42.832528 27.753087-28.184923 41.955554-62.057381 41.955554-101.383038 0-39.33589-13.766538-72.760141-41.955554-101.392248-27.752064-28.184923-62.058404-41.955554-101.391225-41.955554C484.58051 336.138058 450.27417 349.90869 422.521083 378.093613zM224.108151-27.477426c6.992251 70.802556 35.836183 131.116223 86.532819 181.807742 58.561767 58.560744 129.361253 88.283696 212.397435 88.283696 83.037205 0 154.708548-29.722952 213.271338-88.283696 50.695612-50.691519 79.540567-111.005186 87.406722-181.807742L224.108151-27.477426z"  horiz-adv-x="1024" />

    
    <glyph glyph-name="pingjia" unicode="&#58911;" d="M1224.382866 731.232192c0 44.222948-34.319746 80.090875-76.579943 80.090875L300.41432 811.323067c-42.299762 0-76.579943-35.867927-76.579943-80.090875l0-587.35946c0-44.214347 34.280181-80.080554 76.579943-80.080554l321.264886 0 102.429415-107.115245 102.391571 107.115245L1147.804643 63.792178c42.258477 0 76.579943 35.866207 76.579943 80.080554l0 95.715468-0.325118 0c-0.873863 13.926754-11.664688 24.999693-25.200956 24.999693s-24.325373-11.074659-25.200956-24.999693l-0.323398 0 0-69.007615c0-29.513502-22.84256-53.413986-51.055589-53.413986L800.972398 117.166599l-76.863776-80.367828-76.865497 80.367828L325.918032 117.166599c-28.192387 0-51.031506 23.900484-51.031506 53.413986L274.886525 704.524339c0 29.434373 22.839119 53.403665 51.031506 53.403665L1122.276848 757.928004c28.211309 0 51.055589-23.969292 51.055589-53.403665l0-253.638593 0.528102 0c-0.080849-0.896225-0.528102-1.751165-0.528102-2.767805 0-14.736969 11.396337-26.666568 25.524354-26.666568 14.086732 0 25.527795 11.929599 25.527795 26.666568 0 1.018359-0.466175 1.8733-0.528102 2.767805l0.528102 0L1224.384586 731.232192 1224.382866 731.232192zM976.080339 372.229519 494.246657 372.229519c-12.820664 0-23.202082-11.318928-23.202082-25.283526 0-13.923313 10.381418-25.242241 23.202082-25.242241l481.833681 0c12.78454 0 23.165957 11.318928 23.165957 25.242241C999.244576 360.910592 988.863158 372.229519 976.080339 372.229519L976.080339 372.229519zM976.080339 542.937184 494.246657 542.937184c-12.820664 0-23.202082-11.279363-23.202082-25.283526 0-13.921593 10.381418-25.240521 23.202082-25.240521l481.833681 0c12.78454 0 23.165957 11.318928 23.165957 25.240521C999.244576 531.657821 988.863158 542.937184 976.080339 542.937184L976.080339 542.937184zM976.080339 542.937184"  horiz-adv-x="1449" />

    
    <glyph glyph-name="gengduo4" unicode="&#58902;" d="M512.00307 681.078205c-203.258287 0-368.029004-164.770717-368.029004-368.030028 0-203.25317 164.770717-368.023888 368.029004-368.023888 203.25317 0 368.023888 164.770717 368.023888 368.023888C880.026958 516.307488 715.25624 681.078205 512.00307 681.078205zM364.928387 269.740836c-20.549012 0-37.21253 16.662495-37.21253 37.211507 0 20.555152 16.663518 37.217646 37.21253 37.217646 20.554128 0 37.217646-16.662495 37.217646-37.217646C402.146033 286.403331 385.482515 269.740836 364.928387 269.740836zM508.498246 269.740836c-20.549012 0-37.21253 16.662495-37.21253 37.211507 0 20.555152 16.663518 37.217646 37.21253 37.217646 20.554128 0 37.217646-16.662495 37.217646-37.217646C545.715893 286.403331 529.052374 269.740836 508.498246 269.740836zM652.073222 269.740836c-20.554128 0-37.217646 16.662495-37.217646 37.211507 0 20.555152 16.663518 37.217646 37.217646 37.217646 20.549012 0 37.21253-16.662495 37.21253-37.217646C689.285752 286.403331 672.622234 269.740836 652.073222 269.740836z"  horiz-adv-x="1024" />

    
    <glyph glyph-name="icon24" unicode="&#58905;" d="M929.969 367.286h-11.209c-26.111 0-48.893 16.857-57.345 41.557-5.088 14.914-11.145 29.397-18.076 43.354-11.682 23.554-7.611 51.739 10.965 70.34l8.049 8.019c15.91 15.907 15.91 41.733 0 57.641l-48.956 48.955c-15.927 15.927-41.731 15.927-57.637 0l-8.606-8.602c-18.51-18.505-46.587-22.635-70.078-11.11-13.817 6.786-28.101 12.707-42.821 17.678-24.784 8.43-41.78 31.227-41.78 57.417l-0 12.258c0 22.494-18.225 40.758-40.749 40.758l-69.227-0c-22.509 0-40.754-18.264-40.754-40.758v-13.465c0-26.044-16.792-48.775-41.408-57.295-14.371-4.965-28.33-10.822-41.819-17.504-23.561-11.666-51.775-7.647-70.367 10.959l-9.664 9.665c-15.926 15.927-41.721 15.927-57.631 0l-48.949-48.955c-15.932-15.907-15.932-41.733 0-57.641l10.247-10.239c18.517-18.543 22.594-46.613 11.070-70.133-6.492-13.328-12.219-27.096-17.086-41.276-8.487-24.725-31.246-41.624-57.374-41.624h-14.496c-22.508 0-40.762-18.268-40.762-40.762v-69.241c0-22.495 18.255-40.76 40.762-40.76h14.496c26.128 0 48.886-16.897 57.374-41.618 4.867-14.183 10.595-27.95 17.086-41.284 11.523-23.534 7.446-51.614-11.070-70.124l-10.247-10.247c-15.932-15.929-15.932-41.729 0-57.637l48.949-49.169c15.91-15.926 41.706-15.926 57.631 0l9.664 10.034c18.613 18.447 46.805 22.473 70.367 10.827 13.512-6.704 27.472-12.606 41.842-17.314 24.594-8.862 41.386-31.275 41.386-57.227v-13.791c0-22.41 18.246-40.698 40.754-40.698h69.226c22.526 0 40.749 18.288 40.749 40.698v12.016c0 26.562 16.995 49.562 41.78 57.813 14.72 4.737 29.005 10.634 42.821 17.57 23.49 11.514 51.571 7.411 70.078-11.086l8.606-8.84c15.905-15.927 41.71-15.927 57.637 0l48.956 49.169c15.91 15.907 15.91 41.708 0 57.637l-8.049 8.037c-18.575 18.565-22.647 46.766-10.965 70.331 6.931 13.956 12.988 28.433 18.076 43.35 8.453 24.702 31.234 41.554 57.345 41.554h11.209c22.495 0 40.767 18.265 40.767 40.783v69.218c0.001 22.523-18.271 40.765-40.766 40.765zM517.060 37.319c-140.67 0-254.713 114.024-254.713 254.671 0 140.627 114.043 254.65 254.713 254.65 140.675 0 254.69-114.023 254.69-254.65 0-140.647-114.015-254.671-254.69-254.671zM517.14 391.489c-54.979 0-99.538-44.583-99.538-99.564 0-55.001 44.559-99.583 99.538-99.583 54.961 0 99.531 44.582 99.531 99.583 0 54.98-44.57 99.564-99.531 99.564z"  horiz-adv-x="1024" />

    
    <glyph glyph-name="gengduo5" unicode="&#59498;" d="M512 748.208115c-247.536746 0-448.208115-200.671369-448.208115-448.208115s200.671369-448.208115 448.208115-448.208115 448.208115 200.671369 448.208115 448.208115S759.536746 748.208115 512 748.208115zM512-101.028583c-221.478254 0-401.028583 179.550329-401.028583 401.028583S290.521746 701.028583 512 701.028583 913.028583 521.478254 913.028583 300 733.47723-101.028583 512-101.028583zM323.280848 300m-55.042617 0a53.789 53.789 0 1 0 110.085234 0 53.789 53.789 0 1 0-110.085234 0ZM512 300m-55.042617 0a53.789 53.789 0 1 0 110.085234 0 53.789 53.789 0 1 0-110.085234 0ZM700.719152 300m-55.042617 0a53.789 53.789 0 1 0 110.085234 0 53.789 53.789 0 1 0-110.085234 0Z"  horiz-adv-x="1024" />

    
    <glyph glyph-name="pintuan" unicode="&#58903;" d="M512-128c-282.752 0-512 229.248-512 512 0 282.752 229.248 512 512 512 282.752 0 512-229.248 512-512C1024 101.248 794.752-128 512-128zM371.84 430.272c0 37.312-29.568 67.52-66.048 67.52S239.744 467.584 239.744 430.272c0-23.68 11.968-44.416 29.952-56.512-41.152-22.528-70.592-81.408-70.592-146.176l0 0 0 0c0-15.68 63.68-28.416 142.208-28.416 0 0-10.304 25.664 0 85.312C346.688 315.264 353.344 322.752 371.84 345.92 362.688 357.312 352.32 366.784 341.12 373.312 359.488 385.344 371.84 406.272 371.84 430.272zM512 597.312c-53.504 0-96.832-41.344-96.832-92.416 0-32.384 17.536-60.8 43.968-77.312-60.352-30.72-103.552-111.488-103.552-200.064l0 0 0-14.208c0-15.744 70.016-42.688 156.416-42.688 86.4 0 156.416 26.944 156.416 42.688l0 0 0 0c0 80.64-43.776 180.864-104.64 213.632 27.008 16.448 45.12 45.056 45.12 77.888C608.896 555.968 565.504 597.312 512 597.312zM824.896 227.584c0 64.768-29.12 123.712-69.76 146.176 17.792 12.032 29.632 32.832 29.632 56.512 0 37.312-29.248 67.52-65.28 67.52-36.032 0-65.28-30.208-65.28-67.52 0-24 12.096-44.928 30.4-56.96-11.136-6.528-21.312-16-30.4-27.392 18.24-23.168 26.56-48.448 30.144-61.504 10.752-39.808-1.664-85.312-1.664-85.312C761.28 199.104 824.896 211.904 824.896 227.584L824.896 227.584z"  horiz-adv-x="1024" />

    
    <glyph glyph-name="pay" unicode="&#58913;" d="M799.488-4.448h-639.552c-52.928 0-96 43.072-96 96l-0 578.496c0 52.928 43.072 96 96 96h642.496c52.928 0 96-43.072 96-96v-94.048c0-17.664-14.304-32-32-32s-32 14.336-32 32v94.048c0 17.632-14.336 32-32 32h-642.496c-17.632 0-32-14.368-32-32v-578.496c0-17.664 14.368-32 32-32h639.552c17.664 0 32 14.336 32 32v98.944c0 17.696 14.304 32 32 32s32-14.304 32-32v-98.944c0-52.928-43.040-96-96-96zM630.144 381.888c0-17.302 14.026-31.328 31.328-31.328s31.328 14.026 31.328 31.328c0 0 0 0 0 0 0 17.302-14.026 31.328-31.328 31.328-17.302 0-31.328-14.026-31.328-31.328 0-0 0-0 0-0zM896 256h-320c-35.296 0-64 28.704-64 64v128c0 35.296 28.704 64 64 64h320c35.296 0 64-28.704 64-64v-128c0-35.296-28.704-64-64-64zM576 448v-128h320.064l-0.064 128h-320z"  horiz-adv-x="1024" />

    
    <glyph glyph-name="wodebeibeiwodeshouhou" unicode="&#58950;" d="M362.53193 480.134737C362.53193 509.597193 338.661052 533.46807 309.198596 533.46807 279.736141 533.46807 255.865263 509.597193 255.865263 480.134737 255.865263 450.672282 279.736141 426.801404 309.198596 426.801404 338.661052 426.801404 362.53193 450.672282 362.53193 480.134737M714.801404 426.801404C744.263859 426.801404 768.134737 450.672282 768.134737 480.134737 768.134737 509.597193 744.263859 533.46807 714.801404 533.46807 685.361404 533.46807 661.46807 509.597193 661.46807 480.134737 661.46807 450.672282 685.361404 426.801404 714.801404 426.801404M798.405615 699.597812 776.510878 661.683373C849.897545 591.787757 895.865263 493.349557 895.865263 384.011236 895.865263 172.009517 724.00842 0.192156 512 0.192156 299.99158 0.192156 128.134737 172.009517 128.134737 384.011236 128.134737 595.990483 299.99158 767.807843 512 767.807843 560.81965 767.807843 607.348772 758.346089 650.307369 741.714978L672.022455 779.359723C622.574035 799.38448 568.634385 810.666667 512 810.666667 276.367718 810.666667 85.333333 619.633632 85.333333 384.011236 85.333333 148.366368 276.367718-42.666667 512-42.666667 747.654737-42.666667 938.666667 148.366368 938.666667 384.011236 938.666667 509.261485 884.367718 621.543962 798.405615 699.597812M512 128.538948C599.466667 128.538948 674.537545 181.176141 707.458246 256.426667L704 256.426667C704 268.193683 694.456141 277.737545 682.666667 277.737545 670.877193 277.737545 661.333333 268.193683 661.333333 256.426667L659.649122 256.426667C630.119298 205.518596 575.124211 171.160702 512 171.160702 448.875789 171.160702 393.880702 205.518596 364.350878 256.426667L362.666667 256.426667C362.666667 268.193683 353.122807 277.737545 341.333333 277.737545 329.543859 277.737545 320 268.193683 320 256.426667L316.541754 256.426667C349.462455 181.176141 424.533333 128.538948 512 128.538948"  horiz-adv-x="1024" />

    
    <glyph glyph-name="pingjia1" unicode="&#58922;" d="M348.16 153.6l-40.96 0c-14.1312 0-25.58976 11.45856-25.58976 25.6s11.45856 25.6 25.58976 25.6l40.96 0c14.14144 0 25.6-11.45856 25.6-25.6S362.30144 153.6 348.16 153.6zM348.16 522.24l-40.96 0c-14.1312 0-25.58976 11.45856-25.58976 25.6s11.45856 25.6 25.58976 25.6l40.96 0c14.14144 0 25.6-11.4688 25.6-25.6S362.30144 522.24 348.16 522.24zM348.16 337.90976l-40.96 0c-14.1312 0-25.58976 11.4688-25.58976 25.61024s11.45856 25.6 25.58976 25.6l40.96 0c14.14144 0 25.6-11.45856 25.6-25.6S362.30144 337.90976 348.16 337.90976zM512-122.88C232.05888-122.88 5.12 104.05888 5.12 384S232.05888 890.88 512 890.88c74.76224 0 145.75616-16.19968 209.64352-45.25056 24.59648-17.77664 5.20192-47.39072-16.91648-37.31456C645.98016 835.04128 580.72064 849.92 512 849.92 254.67904 849.92 46.08 641.32096 46.08 384S254.67904-81.90976 512-81.90976 977.90976 126.67904 977.90976 384c0 35.39968-3.93216 69.85728-11.40736 103.00416-7.68 36.49536 36.67968 41.54368 39.96672 9.04192C1014.5792 460.00128 1018.88 422.5024 1018.88 384 1018.88 104.05888 791.94112-122.88 512-122.88zM471.04 204.8l327.68 0c14.14144 0 25.6-11.45856 25.6-25.6s-11.45856-25.6-25.6-25.6L471.04 153.6c-14.1312 0-25.6 11.45856-25.6 25.6S456.89856 204.8 471.04 204.8zM471.04 522.24c-14.1312 0-25.6 11.45856-25.6 25.6s11.45856 25.6 25.6 25.6l92.16 0c14.14144 0 25.6-11.4688 25.6-25.6s-11.45856-25.6-25.6-25.6L471.04 522.24zM587.60192 351.73376c-1.04448-1.06496-2.2016-1.9456-3.3792-2.77504-4.61824-6.63552-12.29824-11.03872-21.02272-11.03872l-92.16 0c-14.1312 0-25.6 11.4688-25.6 25.61024s11.45856 25.6 25.6 25.6l81.60256 0 354.79552 344.59648c10.00448 10.00448 26.20416 10.00448 36.1984 0 10.00448-10.00448 10.00448-26.20416 0-36.1984L587.60192 351.73376z"  horiz-adv-x="1024" />

    
    <glyph glyph-name="fukuan" unicode="&#58900;" d="M955.205171 160.223401l-1.308809 27.747971L953.896362 409.933649l1.163499 27.747971c-0.382717 0.01535-0.778736 0.01228-1.163499 0.025583L953.896362 574.802604 804.927539 574.802604 804.927539 794.474722l-634.136711-69.448722c-60.678988-6.64535-110.705358-61.942771-110.705358-123.395378l0-26.828019 0-55.112202 0-389.423267c0-81.744769 66.529229-147.991566 148.598386-147.991566l596.615143 0c82.146928 0 148.598386 66.259076 148.598386 147.991566l0 29.927613C954.330244 160.211121 954.772312 160.203958 955.205171 160.223401zM115.948779 601.625506c0 32.765241 28.485775 64.636113 60.963467 68.189032l572.151985 62.656015 0-157.226904L115.948779 575.243649 115.948779 601.625506zM898.033054 215.628268 733.917252 215.628268c-48.116881 0-87.267553 37.376259-87.267553 83.323731 0 45.947472 39.151695 83.323731 87.267553 83.323731l164.115801 0L898.033054 215.628268zM805.291836 37.831886 208.680786 37.831886c-51.135634 0-92.732008 41.463344-92.732008 92.437296L115.948779 519.251404l782.084275 0 0-81.425498L733.917252 437.825906c-78.921467 0-143.130861-62.293765-143.130861-138.872884s64.209394-138.872884 143.130861-138.872884l164.115801 0 0-29.80891C898.033054 79.29523 856.426447 37.831886 805.291836 37.831886zM730.443128 299.79111a36.394 36.189 0 1 0 74.484412 0 36.394 36.189 0 1 0-74.484412 0Z"  horiz-adv-x="1024" />

    
    <glyph glyph-name="shouhuodizhi" unicode="&#58967;" d="M512 896C306.567529 896 138.812235 734.629647 128.512 531.757176 116.254118 285.485176 340.359529 16.986353 512-128c171.640471 144.986353 395.745882 413.485176 383.488 659.757176C885.187765 734.629647 717.432471 896 512 896z m0-543.984941a159.984941 159.984941 0 0 0-159.984941 160.015059 159.984941 159.984941 0 1 0 319.969882 0A159.984941 159.984941 0 0 0 512 352.015059z m0 319.969882z"  horiz-adv-x="1024" />

    
    <glyph glyph-name="evaluateIcon" unicode="&#58951;" d="M892.785 458.424c-16.864 0-29.379-13.712-29.379-30.553v-403.875c0-40.206-31.152-74.465-71.446-74.465h-635.39c-40.206 0-87.068 34.26-87.068 74.465v636.1c0 40.339 46.862 83.251 87.068 83.251h342.146c16.952 0 30.62 12.514 30.62 29.444 0 16.907-13.667 29.377-30.62 29.377h-342.146c-80.411 0-145.912-61.44-145.912-142.073v-636.1c0-80.544 65.5-133.308 145.912-133.308h635.39c80.499 0 130.29 52.764 130.29 133.309v403.874c0 16.84-12.514 30.553-29.465 30.553zM983.933 761.187l-103.663 103.62c-34.080 34.147-93.99 34.147-128.070 0l-84.584-99.493-451.138-431.834-29.732-258.785 14.379-12.492 252.060 34.303 431.346 451.714 99.403 81.143c35.324 35.325 35.324 96.52 0 131.823zM258.637 134.317l7.366 121.15 111.83-111.764-119.196-9.387zM431.707 175.233l-136.77 136.703 403.21 401.256 134.285-134.329-400.725-403.63zM941.243 675.717l-60.086-60.109-146.355 146.31 60.088 60.132c5.68 5.724 13.312 8.83 21.3 8.83 8.165 0 15.71-3.106 21.39-8.83l103.576-103.554c11.893-11.804 11.893-30.953 0.088-42.779zM941.243 675.717z"  horiz-adv-x="1026" />

    
    <glyph glyph-name="pingjia2" unicode="&#58986;" d="M940.444 639.218l-437.13-454.604h-158.92v158.92l438.72 453.014c5.753 5.759 13.703 9.321 22.486 9.321s16.733-3.563 22.485-9.32l112.358-112.354c5.756-5.755 9.317-13.704 9.317-22.488s-3.561-16.733-9.317-22.488zM805.583 729.136l-397.617-417.39v-63.564h63.568l401.49 413.51-67.441 67.445zM535.102 724.973h-381.409v-699.25h699.246v381.409c0 23.042 6.743 27.81 29.788 27.81 23.072 0 33.784-4.767 33.784-27.81v-381.409c0-30.699-32.864-63.564-63.568-63.564h-699.25c-30.704 0-63.568 32.864-63.568 63.564v699.25c0 30.734 32.864 63.568 63.568 63.568h381.409c23.042 0 27.814-10.741 27.814-33.788-0.005-23.014-4.772-29.78-27.814-29.78z"  horiz-adv-x="1045" />

    
    <glyph glyph-name="bg_huiyuanqiahao" unicode="&#58952;" d="M835.994 1.899H186.651L51.139 551.911c0 0.737 0.62 1.297 1.411 1.297 0.395 0 0.733-0.112 0.959-0.396l227.736-212.887 229.09 212.887c0.226 0.284 0.623 0.396 0.96 0.396h2.766c0.395 0 0.735-0.112 1.017-0.396l227.679-212.887 228.13 213.283h0.621L835.994 1.899z m-324.7 678.016c-25.397 0-46.054 19.306-46.054 43.124 0 23.762 20.657 43.063 46.054 43.063 25.455 0 46.111-19.301 46.111-43.063 0-23.819-20.656-43.124-46.111-43.124zM51.872 591.25c-25.454 0-46.054 19.247-46.054 43.063s20.6 43.119 46.054 43.119c25.455 0 46.111-19.303 46.111-43.119S77.327 591.25 51.872 591.25z m920.255 0c-25.454 0-46.111 19.247-46.111 43.063s20.657 43.119 46.111 43.119c25.456 0 46.056-19.303 46.056-43.119s-20.6-43.063-46.056-43.063z"  horiz-adv-x="1024" />

    
    <glyph glyph-name="kefuzhongxin" unicode="&#58627;" d="M886.114 332.294c0.21 8.477 0.232 17.101 0.057 25.745 2.308 116.949-32.495 215.533-100.665 285.116-32.515 33.181-72.059 58.65-117.372 75.999-7.029 63.172-75.638 112.909-158.973 112.909-83.334 0-151.936-49.736-158.972-112.909-45.309-17.349-84.848-42.818-117.358-75.999-68.189-69.588-103.006-167.973-100.684-284.569-0.205-11.019-0.138-21.362 0.205-31.472-17.668-17.783-31.51-44.643-21.394-82.334 7.519-28.008 28.239-48.993 53.662-58.179 12.922-7.967 28.096-12.604 44.332-12.714 32.419-141.732 150.095-237.951 303.765-237.951 153.384 0 271.089 96.462 303.322 238.275 0.991-0.215 2.023-0.339 3.079-0.339 20.244 0 38.864 7.073 53.554 18.844 19.196 10.891 34.213 29.121 40.368 52.063 11.151 41.549-6.812 69.942-26.927 87.515v0 0zM375.073 501.376c2.442-4.084 61.006-100.646 171.343-142.503 30.443-11.548 61.63-18.154 91.793-24.537 60.501-12.819 117.657-24.927 156.597-75.477 0.404-0.528 0.857-1.014 1.323-1.47-0.062-2.55-0.062-2.555-0.062-2.555 0-18.844-1.422-37.060-4.169-54.563-50.059-79.983-133.117-132.393-236.010-143.683-7.668 10.125-23.289 17.098-41.434 17.098-25.731 0-46.613-13.927-46.613-31.067 0-17.178 20.882-31.077 46.613-31.077 23.066 0 42.068 11.224 45.766 25.903 33.185 3.812 64.828 11.741 94.491 23.722 42.371 17.112 79.712 42.038 110.969 74.097 5.007 5.122 9.81 10.427 14.455 15.874-37.253-113.47-136.847-186.414-266.87-186.424v0c-0.234 0.010-0.871 0.010-1.105 0.010-166.836 0-283.356 119.299-283.356 290.38l-0.313 16.28c-0.205 6.977 0.875 26.573 2.037 45.365 90.949 32.177 128.714 124.621 130.365 128.777l14.179 55.85zM435.062 242.139c0-29.786-24.151-53.938-53.938-53.938-29.786 0-53.937 24.152-53.937 53.938 0 29.786 24.151 53.937 53.937 53.937 29.787 0 53.938-24.151 53.938-53.937v0zM686.231 242.139c0-29.312-23.761-53.077-53.077-53.077-29.31 0-53.071 23.765-53.071 53.077 0 29.312 23.761 53.076 53.071 53.076 29.316-0 53.077-23.764 53.077-53.076v0zM686.231 242.139z"  horiz-adv-x="1024" />

    
    <glyph glyph-name="pintuan1" unicode="&#58906;" d="M376.37 384c-39.913-1.224-72.562-17-97.935-47.304h-49.522c-20.211 0-37.211 4.989-51 14.967-13.801 9.978-20.696 24.576-20.696 43.793 0 86.963 15.268 130.457 45.826 130.457 1.478 0 6.837-2.587 16.076-7.761 9.239-5.174 21.25-10.417 36.033-15.707s29.438-7.946 43.978-7.946c16.503 0 32.891 2.841 49.152 8.5-1.236-9.124-1.848-17.254-1.848-24.391 0.001-34.253 9.979-65.782 29.936-94.608z m-10.348 303.413c18.478-18.478 27.717-40.768 27.717-66.891s-9.239-48.413-27.717-66.891c-18.478-18.478-40.779-27.717-66.891-27.717-26.124 0-48.413 9.239-66.891 27.717-18.478 18.478-27.717 40.768-27.717 66.891s9.239 48.413 27.717 66.891 40.768 27.717 66.891 27.717c26.112 0 48.412-9.239 66.891-27.717z m406.152-538.826c0-29.565-8.997-52.894-26.978-70.033-17.993-17.115-41.888-25.685-71.696-25.685h-323c-29.819 0-53.714 8.569-71.696 25.685-17.993 17.139-26.978 40.467-26.978 70.033 0 13.05 0.427 25.8 1.293 38.25 0.855 12.45 2.587 25.87 5.174 40.283s5.844 27.787 9.793 40.098c3.938 12.311 9.239 24.322 15.891 36.033 6.652 11.711 14.286 21.689 22.913 29.935 8.616 8.246 19.148 14.852 31.598 19.772 12.438 4.92 26.17 7.391 41.207 7.391 2.46 0 7.761-2.656 15.891-7.946s17.116-11.202 26.978-17.739c9.851-6.537 23.029-12.45 39.543-17.739 16.503-5.289 33.134-7.946 49.891-7.946 16.746 0 33.376 2.656 49.891 7.946 16.503 5.289 29.681 11.202 39.543 17.739 9.851 6.537 18.848 12.45 26.978 17.739s13.42 7.946 15.891 7.946c15.025 0 28.757-2.471 41.207-7.391 12.438-4.92 22.971-11.526 31.598-19.772 8.615-8.246 16.261-18.224 22.913-29.935 6.652-11.711 11.942-23.721 15.891-36.033 3.938-12.311 7.207-25.685 9.794-40.098 2.587-14.413 4.308-27.833 5.174-40.283a556.93 556.93 0 0 0 1.296-38.25zM612.337 578.946c27.717-27.717 41.576-61.163 41.576-100.337s-13.859-72.62-41.576-100.337C584.62 350.554 551.174 336.696 512 336.696s-72.62 13.859-100.337 41.576-41.576 61.163-41.576 100.337 13.859 72.62 41.576 100.337S472.826 620.522 512 620.522s72.62-13.859 100.337-41.576z m179.424 108.467c18.478-18.478 27.717-40.768 27.717-66.891s-9.239-48.413-27.717-66.891c-18.478-18.478-40.779-27.717-66.891-27.717-26.124 0-48.413 9.239-66.891 27.717-18.478 18.478-27.717 40.768-27.717 66.891s9.239 48.413 27.717 66.891 40.768 27.717 66.891 27.717c26.112 0 48.413-9.239 66.891-27.717z m75.022-291.956c0-19.217-6.906-33.815-20.696-43.793-13.801-9.978-30.801-14.967-51-14.967h-49.522C720.181 367 687.543 382.776 647.63 384c19.957 28.826 29.935 60.355 29.935 94.609 0 7.137-0.624 15.268-1.848 24.391 16.261-5.659 32.637-8.5 49.152-8.5 14.529 0 29.196 2.656 43.978 7.946s26.793 10.533 36.033 15.707 14.598 7.761 16.076 7.761c30.547-0.001 45.827-43.494 45.827-130.457z"  horiz-adv-x="1024" />

    
    <glyph glyph-name="daishouhuo" unicode="&#58889;" d="M933.269 416.97c14.36 0 26 11.642 26 26.002V634.704c0 67.572-54.973 122.546-122.545 122.546H491.698c-67.572 0-122.546-54.974-122.546-122.546v-10.852H247.057c-32.384 0-62.537-14.521-82.728-39.84l-92.546-116.05c-20.381-25.558-31.605-57.634-31.605-90.322v-250.075h70.229c2.961-62.838 55.006-113.05 118.563-113.05s115.603 50.211 118.564 113.05h255.768c2.962-62.838 55.007-113.05 118.564-113.05 63.578 0 115.635 50.244 118.566 113.11 65.863 1.968 118.838 56.154 118.838 122.485v36.854c0 14.36-11.641 26.001-26.001 26.001s-26.002-11.641-26.002-26.001v-36.854c0-38.898-31.645-70.544-70.543-70.544h-5.582c-18.09 42.488-60.26 72.352-109.276 72.352s-91.186-29.864-109.276-72.352H421.154V634.704c0 38.898 31.646 70.544 70.544 70.544h345.026c38.898 0 70.543-31.646 70.543-70.544v-191.732c0-14.36 11.64-26.001 26.002-26.001z m-704.3-350.453c-36.777 0-66.698 29.922-66.698 66.7s29.921 66.7 66.699 66.7 66.699-29.921 66.699-66.7-29.92-66.7-66.7-66.7z m109.278 113.05c-18.09 42.488-60.26 72.352-109.276 72.352-49.015 0-91.186-29.864-109.276-72.352H92.18V377.64c0 20.954 7.195 41.516 20.26 57.899l92.546 116.05c10.267 12.875 25.602 20.26 42.07 20.26h122.096v-392.282h-30.905z m383.619 20.348c36.777 0 66.699-29.92 66.699-66.699s-29.92-66.7-66.7-66.7-66.698 29.922-66.698 66.7 29.92 66.7 66.699 66.7zM303.583 558.282c-14.36 0-26.001-11.64-26.001-26v-100.614H176.968c-14.36 0-26.002-11.641-26.002-26.002s11.641-26 26.002-26h152.616V532.28c0 14.36-11.64 26.001-26 26.001z"  horiz-adv-x="1024" />

    
    <glyph glyph-name="pintuan2" unicode="&#58893;" d="M957.084 184.456c-10.503 47.574-36.872 90.779-74.477 121.925a217.176 217.176 0 0 1-38.53 25.503c49.51 32.737 82.242 88.897 82.242 152.566 0 97.026-76.002 176.604-171.596 182.407 0.016-0.078 0.013-0.17 0.025-0.25-14.498-0.667-26.048-12.628-26.048-27.289 0-14.682 11.584-26.656 26.11-27.29v-0.1c65.32-5.732 116.731-60.697 116.731-127.478 0-70.582-57.425-128.005-128.007-128.005-3.668 0-7.294 0.183-10.882 0.498-1.482 0.241-3 0.371-4.552 0.371-15.55 0-28.157-12.606-28.157-28.16 0-15.55 12.605-28.158 28.157-28.158 0.539 0 1.074 0.02 1.605 0.05v-0.019c4.57 0.402 9.179 0.64 13.829 0.64 74.892 0 140.602-51.787 158.903-124.13-6.675-3.254-20.279-8.34-46.157-13.052-8.983-1.635-18.653-3.057-28.818-4.256-14.774-0.366-26.64-12.444-26.64-27.306 0-15.09 12.232-27.322 27.32-27.322 0.158 0 0.313 0.009 0.47 0.013l-0.003-0.013c0.098 0.007 0.197 0.015 0.294 0.02a27.47 27.47 0 0 1 2.206 0.145c17.407 1.214 37.836 5.075 51.922 8.287 19.735 4.497 35.663 9.969 47.341 16.263 24.152 13.016 29.223 29.397 29.223 40.849 0.003 4.47-0.842 8.924-2.51 13.291zM66.912 184.456c10.504 47.574 36.874 90.779 74.478 121.925a217.146 217.146 0 0 0 38.531 25.503c-49.51 32.737-82.24 88.897-82.24 152.566 0 97.026 76.001 176.604 171.594 182.407-0.015-0.078-0.013-0.17-0.025-0.25 14.497-0.667 26.047-12.628 26.047-27.289 0-14.682-11.584-26.656-26.11-27.29v-0.1c-65.318-5.732-116.73-60.697-116.73-127.478 0-70.582 57.424-128.005 128.006-128.005 3.669 0 7.294 0.183 10.883 0.498a28.279 28.279 0 0 0 4.55 0.371c15.553 0 28.161-12.606 28.161-28.16 0-15.55-12.608-28.158-28.16-28.158-0.538 0-1.073 0.02-1.604 0.05v-0.019c-4.569 0.402-9.177 0.64-13.83 0.64-74.892 0-140.601-51.787-158.903-124.13 6.677-3.254 20.281-8.34 46.158-13.052 8.984-1.635 18.654-3.057 28.82-4.256 14.773-0.366 26.64-12.444 26.64-27.306 0-15.09-12.232-27.322-27.323-27.322-0.156 0-0.31 0.009-0.467 0.013l0.002-0.013c-0.098 0.007-0.198 0.015-0.295 0.02-0.744 0.021-1.48 0.066-2.207 0.145-17.407 1.214-37.836 5.075-51.922 8.287-19.735 4.497-35.663 9.969-47.34 16.263-24.153 13.016-29.223 29.397-29.223 40.849-0.003 4.47 0.84 8.924 2.51 13.291zM679.569 285.238c-16.845 13.95-35.211 25.618-54.81 34.846 15.293 9.112 29.56 20.186 42.474 33.1 40.81 40.809 63.283 95.067 63.283 152.779s-22.474 111.969-63.283 152.778c-40.808 40.809-95.065 63.283-152.779 63.283-57.712 0-111.97-22.474-152.78-63.283-40.808-40.808-63.281-95.067-63.281-152.78 0-57.712 22.473-111.968 63.282-152.777 12.915-12.915 27.182-23.987 42.474-33.1-19.596-9.23-37.965-20.898-54.808-34.846-44.77-37.079-76.132-88.558-88.54-145.226-1.871-4.758-2.816-9.598-2.816-14.434 0-12.305 5.62-30 32.4-44.434 13.711-7.389 32.553-13.844 55.999-19.189 45.208-10.304 104.896-15.979 168.072-15.979 63.173 0 122.862 5.675 168.071 15.98 23.445 5.344 42.286 11.8 56 19.188 26.778 14.433 32.399 32.128 32.399 44.434 0 4.838-0.948 9.674-2.818 14.434-12.408 56.67-43.77 108.15-88.54 145.226zM353.168 505.964c0 88.931 72.353 161.285 161.285 161.285S675.74 594.895 675.74 505.964c0-88.935-72.352-161.287-161.285-161.287-88.933 0-161.286 72.353-161.286 161.287z m301.76-393.793c-39.228-7.363-89.116-11.418-140.474-11.418s-101.243 4.055-140.473 11.418c-33.758 6.337-51.549 13.635-59.237 18.074C335.988 223.013 419.29 289.9 514.454 289.9c95.165 0 178.467-66.887 199.709-159.656-7.686-4.44-25.478-11.736-59.234-18.074z"  horiz-adv-x="1024" />

    
    <glyph glyph-name="shoucang3" unicode="&#58891;" d="M968.533333 450.133333c10.666667 12.8 14.933333 29.866667 10.666667 44.8-4.266667 14.933333-17.066667 27.733333-34.133333 29.866667l-264.533334 53.333333-130.133333 241.066667c-8.533333 14.933333-23.466667 23.466667-38.4 23.466667s-32-8.533333-38.4-23.466667L341.333333 578.133333 78.933333 526.933333c-17.066667-2.133333-29.866667-14.933333-34.133333-29.866666-4.266667-14.933333-2.133333-34.133333 10.666667-44.8l183.466666-200.533334v-2.133333L204.8-23.466667c-2.133333-17.066667 4.266667-32 19.2-42.666666 8.533333-6.4 17.066667-8.533333 25.6-8.533334 6.4 0 12.8 2.133333 19.2 4.266667L512 46.933333l243.2-117.333333c14.933333-6.4 32-6.4 44.8 4.266667 12.8 10.666667 21.333333 25.6 19.2 42.666666l-34.133333 270.933334v2.133333l183.466666 200.533333z m-213.333333-170.666666c-8.533333-10.666667-12.8-23.466667-10.666667-36.266667l34.133334-270.933333c0-2.133333 0-2.133333-2.133334-2.133334L531.2 85.333333c-6.4 2.133333-12.8 4.266667-19.2 4.266667-6.4 0-12.8-2.133333-19.2-4.266667l-243.2-115.2-2.133333 2.133334 34.133333 270.933333c2.133333 12.8-2.133333 25.6-10.666667 36.266667L85.333333 480v2.133333c0 2.133333 2.133333 2.133333 2.133334 2.133334l262.4 51.2c12.8 2.133333 23.466667 10.666667 29.866666 23.466666l130.133334 238.933334c0 2.133333 2.133333 2.133333 4.266666 0l130.133334-241.066667c6.4-12.8 17.066667-19.2 29.866666-23.466667l262.4-51.2s2.133333 0 2.133334-2.133333v-2.133333l-183.466667-198.4z"  horiz-adv-x="1024" />

    
    <glyph glyph-name="shouhuo" unicode="&#58901;" d="M29.999 667.541c28.070 35.374 31.708 37.155 79.224 37.166 148.862 0.037 297.727 0.107 446.591-0.036 51.758-0.050 71.255-19.637 72.012-70.097 0.294-19.604 2.228-39.183 3.417-58.772 19.035-0.403 38.069-1.038 57.105-1.161 30.411-0.196 60.895-1.309 91.221 0.251 42.253 2.171 75.212-15.397 100.684-44.766 32.336-37.284 61.532-77.102 92.024-115.871 10.417-13.244 6.179-33.233 21.725-44.159v-223.082c-27.234-34.32-31.772-36.453-79.371-37.17-4.809-0.073-9.646-0.332-14.422 0.053-11.305 0.916-10.621-5.922-12.72-14.054-9.653-37.408-34.804-60.525-73.798-69.936-4.651-1.123-8.35-1.951-12.489-5.048h-38.559c-1.126 2.634-1.902 3.383-3.426 3.622-45.559 7.096-73.762 31.512-83.741 75.479-0.886 3.909-7.211 8.956-11.51 9.45-15.082 1.736-30.581-2.22-44.457 9.119-4.653 3.802-18.227 3.819-22.969 0.033-18.43-14.714-39.258-7.916-58.872-8.386-44.749-1.076-89.546-0.569-134.319-0.176-11.139 0.098-14.638-2.145-17.497-14.395-8.712-37.345-34.475-60.453-73.484-69.695-4.634-1.098-8.319-1.948-12.444-5.046h-38.559c-4.14 3.098-7.853 3.973-12.494 5.034-31.936 7.291-55.202 24.21-67.326 54.090-3.782 9.319-4.211 24.015-10.847 27.201-10.312 4.953-24.623 2.269-37.245 2.608-8.013 0.214-16.033 0.026-24.052 0.043-47.528 0.092-51.417 1.916-79.398 37.178-0.002 173.508-0.002 347.017-0.002 520.525zM589.121 402.43c0 81.943-0.762 163.899 0.589 245.82 0.299 18.221-6.186 19.659-21.9 19.608-158.741-0.515-317.486-0.321-476.229-0.31-24.934 0.001-23.051 2.794-23.046-22.275 0.048-154.61 0.022-309.22 0.022-463.831 0-3.091-0.205-6.201 0.035-9.274 1.283-16.434 8.835-24.357 25.655-25.001 17.611-0.672 35.306 0.527 52.9-0.341 17.432-0.859 32.28-0.459 27.452 22.835 20.492 43.564 85.689 91.012 154.995 56.19 27.347-13.739 50.576-32.25 55.512-60.424 3.231-18.441 9.238-18.73 23.523-18.601 52.91 0.478 105.829 0.063 158.741 0.251 21.433 0.077 21.672 0.391 21.706 23.435 0.111 77.307 0.041 154.609 0.041 231.915zM627.678 346.224v-157.956c0-7.743-1.61-15.891 0.352-23.14 3.55-13.11 12.859-19.146 27.987-18.48 12.294 0.543 19.431 0.243 20.65 16.385 1.939 25.699 21.808 45.041 42.424 56.101 19.947 10.702 43.436 25.599 67.772 20.112 46.8-10.55 90.986-26.94 101.468-81.314 0.793-4.123 6.329-9.491 10.584-10.442 7.621-1.701 15.95-0.654 23.974-0.448 26.696 0.683 32.244 5.948 32.472 32.499 0.319 37.164 0.188 74.331 0.040 111.496-0.092 22.84-0.266 23.151-21.995 23.225-54.606 0.184-109.255 1.347-163.8-0.385-37.098-1.178-68.391 30.35-65.156 63.917 1.923 19.959 0.012 40.238 0.425 60.362 0.834 40.687 22.894 61.276 66.138 62.031 14.449 0.251 29.031-1.097 43.327 0.356 14.546 1.481 30.598-7.219 43.631 5.363-16.367 10.499-32.351 21.643-49.348 31.090-4.822 2.68-12.603 0.409-19.029 0.409-38.545 0-77.127-1.021-115.624 0.28-40.347 1.362-48.231-2.638-46.665-47.461 1.672-47.953 0.375-95.997 0.375-144.007zM859.073 351.509c15.952 0 31.915-0.37 47.851 0.106 15.56 0.463 31.094 1.786 46.639 2.733-5.801 15.64-9.182 32.714-17.998 46.574-11.934 18.762-27.517 35.499-42.669 52.145-4.53 4.976-12.776 9.368-19.449 9.544-35.066 0.939-70.184 0.863-105.265 0.251-16.328-0.284-24.133-8.693-24.675-25.581-0.641-19.977-0.688-40.005 0.005-59.975 0.64-18.413 8.683-25.365 29.419-25.685 28.705-0.441 57.424-0.11 86.136-0.11zM357.76 129.598c-0.396 44.591-32.143 73.804-79.536 73.191-45.445-0.588-75.511-31.923-74.703-77.854 0.727-41.295 32.915-70.869 77.13-70.869 46.030 0 77.509 30.831 77.11 75.531zM779.531 202.788c-45.468-0.585-73.676-31.958-75.344-77.804-1.245-34.212 38.561-75.922 82.6-71.6 41.742 4.095 72.624 33.563 72.251 76.186-0.387 44.594-32.134 73.827-79.508 73.219z"  horiz-adv-x="1024" />

    
    <glyph glyph-name="fukuan-" unicode="&#58953;" d="M209.965036 437.82079h-9.509585c-10.460236 0-19.019169-8.5487-19.019169-18.99461v-218.422662c0-10.44591 8.558933-18.99461 19.019169-18.994609h9.509585c10.460236 0 19.020192 8.5487 19.020192 18.994609v218.422662c0 10.44591-8.559956 18.99461-19.020192 18.99461z m665.680125 0v38.9368c0 52.232618-42.794665 94.966908-95.096869 94.966909h-60.863183c-10.459213 38.934754-17.116843 66.476017-17.116842 66.476017-11.410887 44.633546-46.598294 75.973322-81.785702 75.973322-5.704932 0-10.460236-0.950651-16.165168-1.900279l-454.563869-127.255289c-34.235732-9.497305-55.157227-47.483454-52.30425-91.167373-0.950651-5.699816-1.901303-12.347213-1.901303-18.99461v-341.880461c0-52.232618 42.793642-94.965885 95.096868-94.965885h589.602426c52.303226 0 95.096868 42.733267 95.096868 94.965885v39.886429c48.499597 4.749164 85.587284 45.584198 85.587284 94.017281v75.973322c0 49.382711-37.086663 89.270163-85.587284 94.966908h0.001024v0.001024z m-257.71455 228.869594h2.852978c10.460236 0 28.528754-13.294794 36.138058-41.784662l2.852978-11.395538 10.460236-43.683918h-395.60506l343.30081 96.864118z m210.165604-532.762883c0-26.592658-20.920472-47.483454-47.548946-47.483454h-589.602426c-26.628474 0-47.547923 20.891819-47.547922 47.483454v341.880461c0 25.640983 21.87317 47.484478 47.547922 47.484478h589.602426c26.627451 0 47.548946-20.892843 47.548946-47.484478v-37.987172h-114.116038c-52.30425 0-95.097892-42.73429-95.097891-94.966909v-75.972299c0-52.231595 42.793642-94.965885 95.097891-94.965885h114.116038v-37.988196z m85.588307 132.952035c0-22.792099-16.165168-41.784662-38.039361-46.533826-2.852978-0.949628-6.656607-0.949628-9.509585-0.949629h-152.156422c-26.627451 0-47.548946 20.892843-47.548946 47.483455v75.973322c0 26.590612 20.921495 47.483454 47.548946 47.483454h152.156422c2.852978 0 6.656607 0 9.509585-0.950651 21.874193-4.747117 38.039361-23.740704 38.039361-46.532803v-75.973322z m-193.048761-9.494235c-13.313214 0-23.77345 10.44591-23.77345 23.740704v47.484477c0 13.294794 10.460236 23.740704 23.77345 23.740704 13.314237 0 23.774473-10.44591 23.774473-23.740704v-47.484477c0-13.294794-10.460236-23.740704-23.774473-23.740704z"  horiz-adv-x="1024" />

    
    <glyph glyph-name="fukuan1" unicode="&#59223;" d="M604.672 633.344l-78.336-172.032h-15.872L431.616 633.344h-47.104l78.336-172.032H384.512v-47.104h110.08V335.872H384.512v-47.104h110.08v-78.336h47.104v78.336h110.08v47.104h-110.08V414.208h110.08v47.104H573.44l78.336 172.032h-47.104zM876.544 781.824c-7.168 5.12-75.264 49.152-365.056 49.152-289.792 0-358.4-44.544-365.056-49.152-10.24-7.68-17.408-22.016-17.408-34.816v-364.032c0-222.72 347.648-430.592 362.496-439.296 5.632-3.072 12.8-5.12 19.968-5.12s14.336 2.048 19.968 5.12c14.848 8.704 362.496 216.576 362.496 439.296V747.008c0.512 12.8-7.168 27.648-17.408 34.816z m-16.384-398.848c0-203.776-342.528-408.064-345.6-410.112 0 0-1.024-0.512-2.56-0.512l-2.56 0.512c-3.584 2.048-345.6 206.336-345.6 410.112V747.008c0 2.048 2.048 6.656 3.584 7.68 0.512 0.512 67.072 43.008 345.088 43.008 278.016 0 344.064-42.496 344.576-42.496 1.536-1.024 3.584-5.632 3.584-7.68l-0.512-364.544z"  horiz-adv-x="1024" />

    
    <glyph glyph-name="ren1" unicode="&#58895;" d="M842.104 185.34c-6.77 5.79-13.803 11.09-21.11 15.774-99.195 70.735-181.42 110.94-302.125 110.94-119.583 0-200.804-39.493-299.34-109.007a191.477 191.477 0 0 1-26.755-19.81c-30.182-26.658-54.456-63.982-69.805-107.855V-56.68H916.61V68.934c-15.565 47.881-41.695 88.347-74.507 116.407zM276.035 592.348a238.554 238.554 0 1 1 477.108 0 238.554 238.554 0 1 1-477.108 0z"  horiz-adv-x="1024" />

    
    <glyph glyph-name="pintuan3" unicode="&#58904;" d="M376.37 384c-39.913-1.224-72.562-17-97.935-47.304h-49.522c-20.211 0-37.211 4.989-51 14.967-13.801 9.978-20.696 24.576-20.696 43.793 0 86.963 15.268 130.457 45.826 130.457 1.478 0 6.837-2.587 16.076-7.761 9.239-5.174 21.25-10.417 36.033-15.707s29.438-7.946 43.978-7.946c16.503 0 32.891 2.841 49.152 8.5-1.236-9.124-1.848-17.254-1.848-24.391 0.001-34.253 9.979-65.782 29.936-94.608z m-10.348 303.413c18.478-18.478 27.717-40.768 27.717-66.891s-9.239-48.413-27.717-66.891c-18.478-18.478-40.779-27.717-66.891-27.717-26.124 0-48.413 9.239-66.891 27.717-18.478 18.478-27.717 40.768-27.717 66.891s9.239 48.413 27.717 66.891 40.768 27.717 66.891 27.717c26.112 0 48.412-9.239 66.891-27.717z m406.152-538.826c0-29.565-8.997-52.894-26.978-70.033-17.993-17.115-41.888-25.685-71.696-25.685h-323c-29.819 0-53.714 8.569-71.696 25.685-17.993 17.139-26.978 40.467-26.978 70.033 0 13.05 0.427 25.8 1.293 38.25 0.855 12.45 2.587 25.87 5.174 40.283s5.844 27.787 9.793 40.098c3.938 12.311 9.239 24.322 15.891 36.033 6.652 11.711 14.286 21.689 22.913 29.935 8.616 8.246 19.148 14.852 31.598 19.772 12.438 4.92 26.17 7.391 41.207 7.391 2.46 0 7.761-2.656 15.891-7.946s17.116-11.202 26.978-17.739c9.851-6.537 23.029-12.45 39.543-17.739 16.503-5.289 33.134-7.946 49.891-7.946 16.746 0 33.376 2.656 49.891 7.946 16.503 5.289 29.681 11.202 39.543 17.739 9.851 6.537 18.848 12.45 26.978 17.739s13.42 7.946 15.891 7.946c15.025 0 28.757-2.471 41.207-7.391 12.438-4.92 22.971-11.526 31.598-19.772 8.615-8.246 16.261-18.224 22.913-29.935 6.652-11.711 11.942-23.721 15.891-36.033 3.938-12.311 7.207-25.685 9.794-40.098 2.587-14.413 4.308-27.833 5.174-40.283a556.93 556.93 0 0 0 1.296-38.25zM612.337 578.946c27.717-27.717 41.576-61.163 41.576-100.337s-13.859-72.62-41.576-100.337C584.62 350.554 551.174 336.696 512 336.696s-72.62 13.859-100.337 41.576-41.576 61.163-41.576 100.337 13.859 72.62 41.576 100.337S472.826 620.522 512 620.522s72.62-13.859 100.337-41.576z m179.424 108.467c18.478-18.478 27.717-40.768 27.717-66.891s-9.239-48.413-27.717-66.891c-18.478-18.478-40.779-27.717-66.891-27.717-26.124 0-48.413 9.239-66.891 27.717-18.478 18.478-27.717 40.768-27.717 66.891s9.239 48.413 27.717 66.891 40.768 27.717 66.891 27.717c26.112 0 48.413-9.239 66.891-27.717z m75.022-291.956c0-19.217-6.906-33.815-20.696-43.793-13.801-9.978-30.801-14.967-51-14.967h-49.522C720.181 367 687.543 382.776 647.63 384c19.957 28.826 29.935 60.355 29.935 94.609 0 7.137-0.624 15.268-1.848 24.391 16.261-5.659 32.637-8.5 49.152-8.5 14.529 0 29.196 2.656 43.978 7.946s26.793 10.533 36.033 15.707 14.598 7.761 16.076 7.761c30.547-0.001 45.827-43.494 45.827-130.457z"  horiz-adv-x="1024" />

    
    <glyph glyph-name="zuji" unicode="&#59082;" d="M196.808388 745.966938c0 22.274306 9.465582 44.38386 25.762757 60.157102 16.278755 15.741519 39.168068 24.904203 62.174038 24.904203 23.030529 0 45.913703-9.16166 62.192457-24.904203 16.297175-15.773242 25.76378-37.888935 25.76378-60.157102 0-22.274306-9.465582-44.432978-25.76378-60.163241-16.272615-15.742543-39.161928-24.898063-62.192457-24.898063-23.00597 0-45.895283 9.155521-62.174038 24.898063-16.297175 15.730263-25.762757 37.887912-25.762757 60.163241z m220.256426 9.441023c0 17.349133 7.366781 34.540677 20.033266 46.807049 12.666484 12.223393 30.472012 19.370163 48.363497 19.370163 17.909905 0 35.715433-7.14677 48.381917-19.370163 12.648065-12.266371 20.014846-29.457916 20.014846-46.807049 0-17.312294-7.366781-34.540677-20.014846-46.770209-12.666484-12.266371-30.472012-19.400862-48.381917-19.400863-17.891486 0-35.697013 7.134491-48.363497 19.400863-12.666484 12.229532-20.033265 29.457916-20.033266 46.770209z m178.74908-25.220404c0 14.84715 6.339382 29.615505 17.196661 40.104393 10.850116 10.494005 26.107611 16.624632 41.444924 16.624633 15.361873 0 30.600949-6.130627 41.445948-16.624633 10.874675-10.488889 17.196661-25.257244 17.19666-40.104393 0-14.848173-6.320962-29.622668-17.19666-40.110533-10.844999-10.488889-26.083052-16.581654-41.445948-16.581654-15.337313 0-30.594809 6.092765-41.444924 16.581654-10.851139 10.488889-17.196661 25.263383-17.196661 40.110533z m133.651976-98.599646c0 12.388145 5.26184 24.697495 14.297634 33.414018 9.03477 8.754385 21.744233 13.837146 34.551934 13.837146 12.789281 0 25.498744-5.082762 34.533514-13.837146 9.05319-8.717546 14.322194-21.025872 14.322194-33.414018 0-12.346189-5.26184-24.654516-14.322194-33.4089-9.035794-8.753361-21.744233-13.842263-34.533514-13.842263-12.8077 0-25.517163 5.088902-34.551934 13.842263-9.041934 8.754385-14.297634 21.063735-14.297634 33.4089z m-149.234883-29.451775c93.293803-2.691295 168.263262-76.616982 168.258145-167.511132 0-1.681292-0.222057-3.287883-0.279362-5.015223-2.588965-186.126095-91.411943-352.260879-229.79057-462.413652l-0.039909 0.186242v0.033769c-24.022113-19.218714-54.797024-30.771841-88.366584-30.771841-76.571956 0-138.737808 60.128449-138.737807 134.200468 0 17.944697 3.723811 34.957163 10.3006 50.661844h-0.057305c80.975243 190.842513 2.64627 231.113705 2.646269 231.113704l-2.646269 1.533936v0.152473c-39.33589 23.663956-65.627696 65.768913-65.627697 113.853048 0 71.269183 57.55688 129.451304 130.10315 133.74919v0.22615h3.576455c1.682315 0.033769 3.324722 0.220011 5.024434 0.220011 1.664919 0 3.324722-0.186242 5.00806-0.220011h190.438307c1.688455 0 3.324722 0.220011 5.046946 0.220011 1.664919 0 3.290953-0.220011 5.013178-0.220011h0.129959z"  horiz-adv-x="1024" />

    
    <glyph glyph-name="ren2" unicode="&#58666;" d="M959 65c0 136.1-78.3 252.4-188.9 299.8 53.6 38.6 88.9 104.3 88.9 178.9 0 101.9-65.8 187.1-154.1 209.3-0.8 0.2-1.6 0.1-2.3-0.2-1 0.1-2 0.3-3 0.3-18.9 0-34.2-16.5-34.2-36.8 0-18.4 12.5-33.4 28.8-36.2 2.9-1.3 6.7-2.2 6.9-2.3 51.1-18.7 88-70.8 88-132.2 0-68.5-45.8-125.4-106.2-137.3-0.1 0-0.2-0.2-0.2-0.2-20.1-1.4-36.1-19.2-36.1-41.2 0-22.3 16.4-40.4 36.9-41.3 0.1-0.1 0.3-0.3 0.4-0.3C805.4 312 891.5 200.6 891.5 65c0-20.1 15.1-36.4 33.8-36.4 18.2 0 32.9 15.5 33.6 34.9 0 0.2 0.1 0.3 0.1 0.5v0.2 0.8M554.5 358.8c64 46.2 106.2 124.7 106.2 213.9 0 142.1-107 257.3-239 257.3s-239-115.2-239-257.3c0-89.2 42.2-167.7 106.2-213.9C156.5 301.9 63 162.8 63 0c0-9.2 0.5-18.2 1.1-27.2h0.1c0-19.8 14.9-35.9 33.3-35.9s33.3 16 33.3 35.9c0 1.1-0.2 2.2-0.3 3.3-0.6 7.9-1.2 15.8-1.2 23.9 0 173.9 130.9 314.8 292.3 314.8C583.1 314.8 714 173.9 714 0c0-8.4-0.6-16.6-1.2-24.8 0-0.4-0.1-0.8-0.1-1.2v-1.1h0.1c0.6-19.3 15.2-34.8 33.2-34.8 18 0 32.6 15.5 33.2 34.8h0.1c0.6 9 1.1 18 1.1 27.1-0.1 162.8-93.7 301.9-225.9 358.8m-132.9 29c-94.8 0-171.7 82.8-171.7 184.9 0 102.1 76.9 184.9 171.7 184.9 94.8 0 171.7-82.8 171.7-184.9 0-102.1-76.9-184.9-171.7-184.9m0 0z"  horiz-adv-x="1024" />

    
    <glyph glyph-name="shouhuodizhi1" unicode="&#58629;" d="M511.998 863.675c-190.106 0-344.762-154.88-344.762-345.277 0-233.947 308.578-588.861 321.717-603.853 5.688-6.491 13.45-9.994 22.534-10.219 8.609 0 16.799 3.702 22.488 10.152 13.206 14.993 323.856 369.973 322.784 604.058-0.867 190.307-155.521 345.141-344.762 345.141zM511.998 398.993c-66.127 0-119.919 53.791-119.919 119.919 0 66.129 53.792 119.92 119.919 119.92 66.129 0 119.92-53.792 119.92-119.92 0-66.129-53.793-119.919-119.92-119.919z"  horiz-adv-x="1024" />

    
    <glyph glyph-name="xiaoxi" unicode="&#58881;" d="M277.504 448.512c0-19.456 15.36-35.84 34.816-35.84s34.816 15.872 34.816 35.84c0 19.456-15.36 35.84-34.816 35.84-19.456-0.512-34.816-16.384-34.816-35.84M476.16 448.512c0-19.456 15.36-35.84 34.816-35.84s34.816 15.872 34.816 35.84c0 19.456-15.36 35.84-34.816 35.84-19.456-0.512-34.816-16.384-34.816-35.84M674.816 448.512c0-19.456 15.36-35.84 34.816-35.84s34.816 15.872 34.816 35.84c0 19.456-15.36 35.84-34.816 35.84-19.456-0.512-34.816-16.384-34.816-35.84M737.792-33.792c-4.096 0-8.704 1.536-12.288 4.096l-163.328 123.392H155.648c-55.808 0-100.864 46.08-100.864 102.912V695.808C54.784 752.64 99.84 798.72 155.648 798.72h710.144c55.808 0 100.864-46.08 100.864-102.912v-498.688c0-56.832-45.568-102.912-100.864-102.912H757.76v-107.52c0-7.68-4.608-14.848-11.264-18.432-2.56-1.024-5.632-2.048-8.704-2.048zM155.648 757.76c-33.28 0-60.416-28.16-60.416-62.464v-498.688c0-34.304 27.136-62.464 60.416-62.464h413.184c4.608 0 8.704-1.536 12.288-4.096l136.192-102.912v86.528c0 5.632 2.048 10.752 6.144 14.336 3.584 3.584 9.216 6.144 14.336 6.144h128.512c33.28 0 60.416 28.16 60.416 62.464V695.808c0 34.304-27.136 62.464-60.416 62.464H155.648z"  horiz-adv-x="1024" />

    
    <glyph glyph-name="jinbi" unicode="&#58883;" d="M837.632 709.632C750.592 796.672 634.88 844.8 512 844.8s-238.592-48.128-325.632-135.168S51.2 506.88 51.2 384s48.128-238.592 135.168-325.632S389.12-76.8 512-76.8s238.592 48.128 325.632 135.168S972.8 261.12 972.8 384s-48.128 238.592-135.168 325.632zM512-35.84c-231.424 0-419.84 188.416-419.84 419.84s188.416 419.84 419.84 419.84 419.84-188.416 419.84-419.84-188.416-419.84-419.84-419.84zM735.744 467.456c11.264 0 20.48 9.216 20.48 20.48s-9.216 20.48-20.48 20.48h-96.256l90.624 136.192c6.144 9.216 3.584 22.016-5.632 28.672-9.216 6.144-22.016 3.584-28.672-5.632l-105.984-158.72h-70.656c-2.048 1.024-4.608 1.536-7.168 1.536s-5.12-0.512-7.168-1.536H434.176l-105.984 158.72c-6.144 9.216-18.944 11.776-28.672 5.632-9.216-6.144-11.776-18.944-5.632-28.672l90.624-136.192H288.256c-11.264 0-20.48-9.216-20.48-20.48s9.216-20.48 20.48-20.48H491.52v-155.648H288.256c-11.264 0-20.48-9.216-20.48-20.48s9.216-20.48 20.48-20.48H491.52v-158.72c0-11.264 9.216-20.48 20.48-20.48s20.48 9.216 20.48 20.48v158.72h203.264c11.264 0 20.48 9.216 20.48 20.48s-9.216 20.48-20.48 20.48H532.48V467.456h203.264z"  horiz-adv-x="1024" />

    
    <glyph glyph-name="zhuye" unicode="&#58885;" d="M965.632 492.032c-2.048 2.048-207.872 182.784-268.8 241.664-73.216 71.68-135.68 86.528-174.592 86.528h-20.992c-38.912 0-101.376-14.848-174.592-86.528-60.416-59.392-266.24-240.128-268.288-241.664-8.704-7.68-9.216-20.48-2.048-29.184 7.68-8.704 20.48-9.216 29.184-2.048 2.048 2.048 15.872 13.824 36.352 32.256v-412.16c0-73.216 60.928-133.12 135.68-133.12h508.928c74.752 0 135.68 59.904 135.68 133.12V493.056c20.48-17.92 34.304-30.208 36.352-32.256 4.096-3.584 8.704-5.12 13.312-5.12 5.632 0 11.264 2.56 15.36 7.168 8.192 8.704 7.168 21.504-1.536 29.184z m-302.08-503.296H361.984v253.952c0 17.408 14.848 31.744 32.768 31.744h235.52c17.92 0 32.768-14.336 32.768-31.744v-253.952z m197.632 540.16v-448c0-50.688-42.496-92.16-94.72-92.16h-61.952v253.952c0 39.936-33.28 72.704-73.728 72.704h-235.52c-40.96 0-73.728-32.768-73.728-72.704v-253.952H257.536c-52.224 0-94.72 41.472-94.72 92.16V528.896v0.512c66.048 58.368 155.136 138.24 193.024 175.104C422.4 769.536 476.16 779.264 501.76 779.264h20.992c25.6 0 78.848-9.728 145.92-74.752 37.376-36.864 126.976-116.736 192.512-175.616z"  horiz-adv-x="1024" />

    
    <glyph glyph-name="naozhong" unicode="&#58887;" d="M952.832 375.808c0 236.032-192 428.032-428.032 428.032-235.52-0.512-427.52-192.512-427.52-428.032 0-134.144 61.952-253.952 158.72-332.288l-101.888-93.696c-8.192-7.68-8.704-20.48-1.024-28.672 4.096-4.608 9.728-6.656 14.848-6.656s9.728 1.536 13.824 5.12l108.032 98.816c67.584-44.544 148.48-70.656 235.52-70.656 86.528 0 167.424 26.112 234.496 70.144l107.52-98.304c4.096-3.584 8.704-5.12 13.824-5.12 5.632 0 11.264 2.048 14.848 6.656 7.68 8.192 7.168 20.992-1.024 28.672L793.6 42.496c97.28 78.848 159.232 198.656 159.232 333.312z m-197.12-310.784c-3.584-1.024-7.168-3.072-10.24-6.144-0.512-1.024-1.536-1.536-2.048-2.56-62.464-42.496-137.216-67.584-218.624-67.584-82.432 0-158.72 25.6-221.696 69.632l-0.512 0.512c-2.048 2.56-4.608 4.096-7.168 5.12C200.192 134.656 138.24 247.808 138.24 375.808 138.24 589.312 311.808 762.88 525.312 762.88s387.072-173.568 387.072-387.072c0-127.488-61.952-240.128-156.672-310.784zM259.072 795.648c8.192 7.68 8.704 20.48 1.024 28.672-7.68 8.192-20.48 8.704-28.672 1.024L72.192 679.424c-8.192-7.68-8.704-20.48-1.024-28.672 4.096-4.608 9.728-6.656 14.848-6.656s9.728 1.536 13.824 5.12l159.232 146.432zM980.48 679.424l-159.744 146.432c-8.192 7.68-20.992 7.168-28.672-1.024-7.68-8.192-7.168-20.992 1.024-28.672l159.744-146.432c4.096-3.584 8.704-5.12 13.824-5.12 5.632 0 11.264 2.048 14.848 6.656 7.68 7.68 7.168 20.48-1.024 28.16zM725.504 393.216h-180.224V685.568c0 11.264-9.216 20.48-20.48 20.48s-20.48-9.216-20.48-20.48v-313.344c0-11.264 9.216-20.48 20.48-20.48 1.024 0 2.56 0 3.584 0.512h196.608c11.264 0 20.48 9.216 20.48 20.48s-8.704 20.48-19.968 20.48z"  horiz-adv-x="1024" />

    
    <glyph glyph-name="accessory" unicode="&#59101;" d="M842.72 636.096a159.04 159.04 0 0 1-113.056 46.912h-0.16a158.592 158.592 0 0 1-112.768-46.656l-0.096-0.064-294.528-294.528a95.968 95.968 0 0 1 68.128-163.712c24.512 0 49.024 9.28 67.648 27.968l294.496 294.496a31.968 31.968 0 1 1-45.248 45.248l-294.496-294.496a31.872 31.872 0 0 0-45.088 0.16 31.552 31.552 0 0 0-0.192 45.088l294.496 294.496a95.04 95.04 0 0 0 67.648 28h0.096a95.52 95.52 0 0 0 67.872-28.16c18.112-18.112 28.096-42.24 28.128-67.84a95.136 95.136 0 0 0-27.968-67.776l-79.52-79.52-0.512-0.48-220.416-220.48a160.32 160.32 0 0 0-226.432-0.096A158.912 158.912 0 0 0 224 267.776c0 42.816 16.672 83.04 46.912 113.28l300.288 300.32a31.968 31.968 0 1 1-45.248 45.248l-300.288-300.288A222.848 222.848 0 0 1 160 267.776c0-59.872 23.264-116.16 65.504-158.4a223.168 223.168 0 0 1 158.336-65.44 223.68 223.68 0 0 1 158.592 65.6l311.456 311.424a31.68 31.68 0 0 1 7.104 11.072c18.496 26.56 28.64 57.92 28.608 91.04a159.104 159.104 0 0 1-46.88 113.024"  horiz-adv-x="1024" />

    
    <glyph glyph-name="activity" unicode="&#59102;" d="M800 50.912c0-1.76-0.736-2.784-0.096-2.88l-574.656-0.416C224.992 47.808 224 48.96 224 50.912v477.12h576v-477.12zM224 685.12c0 1.728 0.64 2.752 0.096 2.912H352V672a32 32 0 1 1 64 0v16h192V672a32 32 0 1 1 64 0v16h127.008a4.736 4.736 0 0 0 0.992-2.88V592H224V685.12zM799.84 752H672V768a32 32 0 0 1-64 0v-16h-192V768a32 32 0 0 1-64 0v-16H223.712C188.576 752 160 721.984 160 685.12V50.88c0-36.896 28.608-66.88 63.744-66.88h576.512c35.136 0 63.744 29.984 63.744 66.88V685.12c0 36.896-28.768 66.912-64.16 66.912zM384 336h256a32 32 0 0 1 0 64h-256a32 32 0 0 1 0-64M384 176h256a32 32 0 0 1 0 64h-256a32 32 0 0 1 0-64"  horiz-adv-x="1024" />

    
    <glyph glyph-name="add" unicode="&#59103;" d="M512 64a32 32 0 0 1 32 32v256h256a32 32 0 0 1 0 64h-256V672a32 32 0 0 1-64 0v-256H224a32 32 0 0 1 0-64h256v-256a32 32 0 0 1 32-32"  horiz-adv-x="1024" />

    
    <glyph glyph-name="addition_fill" unicode="&#59104;" d="M683.968 361.056H544v-139.968a32 32 0 0 0-64 0v139.968h-139.968a32 32 0 0 0 0 64H480v139.968a32 32 0 0 0 64 0v-139.968h139.968a32 32 0 0 0 0-64M512 768C300.256 768 128 595.712 128 384c0-211.744 172.256-384 384-384s384 172.256 384 384c0 211.712-172.256 384-384 384"  horiz-adv-x="1024" />

    
    <glyph glyph-name="addition" unicode="&#59105;" d="M512 64c-176.448 0-320 143.552-320 320S335.552 704 512 704s320-143.552 320-320-143.552-320-320-320m0 704C300.256 768 128 595.744 128 384s172.256-384 384-384 384 172.256 384 384S723.744 768 512 768M683.936 425.056H544v139.968a32 32 0 1 1-64 0v-139.968h-139.936a32 32 0 0 1 0-64H480v-139.968a32 32 0 0 1 64 0v139.968h139.968a32 32 0 0 1 0 64"  horiz-adv-x="1024" />

    
    <glyph glyph-name="addpeople" unicode="&#59106;" d="M352.416 455.2v104.736C352.416 621.76 400.512 672 459.68 672s107.296-50.24 107.296-112.064v-104.736c0-61.792-48.128-112.064-107.296-112.064-59.168 0-107.264 50.24-107.264 112.064m176.896-374.336l-307.84 0.768v103.456c0 4.224 4.608 11.104 8.608 12.768 1.312 0.64 134.912 61.536 237.12 61.536h31.648c16.96 0 30.72 14.336 30.72 32 0 1.216-0.544 2.24-0.672 3.424 58.56 27.616 99.52 89.056 99.52 160.384v104.736C628.416 657.024 552.736 736 459.68 736c-93.024 0-168.704-78.976-168.704-176.064v-104.736c0-60.16 29.088-113.312 73.312-145.088a912.416 912.416 0 0 1-158.08-53.28C179.84 245.76 160 214.912 160 185.088v-113.76c0-3.52 0.544-6.976 1.632-10.304 8.64-26.432 31.936-44.16 58.048-44.16h309.632c16.96 0 30.72 14.336 30.72 32s-13.76 32-30.72 32M743.68 64c-67.776 0-122.88 57.408-122.88 128s55.104 128 122.88 128 122.88-57.408 122.88-128-55.104-128-122.88-128m0 320c-101.664 0-184.32-86.112-184.32-192s82.656-192 184.32-192c101.664 0 184.32 86.112 184.32 192s-82.656 192-184.32 192M804.48 215.552h-39.296V256c0 12.384-9.6 22.4-21.504 22.4a21.952 21.952 0 0 1-21.504-22.4v-40.448H681.6a21.952 21.952 0 0 1-21.504-22.4c0-12.384 9.6-22.4 21.504-22.4h40.576V128c0-12.384 9.6-22.4 21.504-22.4a21.952 21.952 0 0 1 21.504 22.4v42.752h39.296a21.952 21.952 0 0 1 21.504 22.4c0 12.384-9.6 22.4-21.504 22.4"  horiz-adv-x="1024" />

    
    <glyph glyph-name="addressbook_fill" unicode="&#59107;" d="M896 448h-128a32 32 0 0 1 0-64h128a32 32 0 0 1 0 64M896 576h-128a32 32 0 0 1 0-64h128a32 32 0 0 1 0 64M768 640h128a32 32 0 0 1 0 64h-128a32 32 0 0 1 0-64M781.76 256c-5.12 2.272-97.216 42.56-198.72 62.752 11.808 9.632 22.144 20.928 31.104 33.248a174.88 174.88 0 0 1 33.792 103.2v104.768A176.32 176.32 0 0 1 576 701.664 174.368 174.368 0 0 1 472.192 736c-96.928 0-175.776-78.976-175.776-176.032v-104.768c0-56.544 26.88-106.816 68.384-139.072-96.48-20.832-181.344-57.824-185.536-59.712C150.016 244.672 128 211.808 128 180v-131.712l1.728-5.024c9.504-27.904 35.136-46.624 63.776-46.624h572.992c33.28 0 60.832 24.864 64.96 56.96l0.544 126.4c0 15.232-5.184 30.72-13.664 44-9.088 14.272-21.952 26.016-36.576 32"  horiz-adv-x="1024" />

    
    <glyph glyph-name="browse" unicode="&#59108;" d="M812.896 367.104C812.16 365.056 730.816 160 504.16 160c-225.44 0-305.248 198.24-309.696 209.376-3.2 6.4-2.944 21.28 1.376 29.92C196.736 401.344 287.776 608 504.16 608c215.296 0 304.384-199.776 309.248-210.752 3.296-6.176 3.552-21.344-0.512-30.144m58.112 57.888C866.72 435.072 762.24 672 504.16 672 246.08 672 141.344 434.56 137.92 426.432c-12.704-24.896-13.056-60.896-1.984-82.752 0.96-2.496 98.048-247.68 368.224-247.68 270.144 0 367.552 245.696 367.552 246.016 11.712 24.832 10.912 61.6-0.704 82.976M568.16 344.032a64.064 64.064 0 0 0-64-64.032c-35.296 0-64 28.704-64 64.032v71.904c0 35.328 28.704 64.064 64 64.064s64-28.736 64-64.064v-71.904z m-64 199.968c-70.592 0-128-57.44-128-128.064v-71.904a128.16 128.16 0 0 1 128-128.032c70.592 0 128 57.44 128 128.032v71.904a128.16 128.16 0 0 1-128 128.064z"  horiz-adv-x="1024" />

    
    <glyph glyph-name="brush" unicode="&#59109;" d="M766.88 460.736l-176.608 176.64 66.72 66.752 176.544-176.704-66.656-66.688zM401.44 95.04L224.64 271.808l0.256-0.064L545.024 592.096l176.64-176.64L401.376 95.04zM224 94.08v87.872l87.712-87.68-87.68-0.192z m655.04 478.528l-176.768 176.736A60.96 60.96 0 0 1 656.96 768a63.968 63.968 0 0 1-45.12-18.848L179.584 316.992a63.936 63.936 0 0 1-17.92-54.368c-0.768-2.688-1.696-5.312-1.696-8.256v-160.288c0-35.136 28.576-63.68 63.712-63.68h160.32c2.88 0 5.504 0.896 8.192 1.632 2.976-0.416 5.952-0.832 8.96-0.832 16.416 0 32.896 6.272 45.44 18.816l432.16 432.16a64 64 0 0 1 0.224 90.432z"  horiz-adv-x="1024" />

    
    <glyph glyph-name="brush_fill" unicode="&#59110;" d="M879.04 572.64l-176.8 176.768a64.032 64.032 0 0 1-90.464-0.224l-67.36-67.392 44.864-44.64 0.96 0.192h0.032l176.64-176.576 30.304-30.4 14.848-14.88 66.72 66.72a64 64 0 0 1 0.224 90.432M325.888 80.64l-13.6 13.632-88.32 88.64-14.08 14.144-40.704 43.392L160 250.24v-156.128c0-35.136 28.576-63.68 63.68-63.68h154.208l-11.648 11.2-40.352 38.976zM545.024 592.128l-45.248 45.056L179.616 317.024l45.248-45.248 176.544-176.704 45.184-45.024 318.976 318.976-43.936 46.496z"  horiz-adv-x="1024" />

    
    <glyph glyph-name="camera_fill" unicode="&#59111;" d="M528 512c88.224 0 160-71.776 160-160s-71.776-160-160-160-160 71.776-160 160 71.776 160 160 160m320 105.728a62.688 62.688 0 0 1-15.968 2.24h-104.832L704.704 672l-6.688 15.488C686.016 715.136 654.272 736 624.128 736h-192.288c-30.144 0-61.888-20.864-73.856-48.544L351.296 672l-22.496-52H223.968c-5.536 0-10.848-0.96-15.968-2.272a64.16 64.16 0 0 1-48-62.08v-439.36c0-29.888 20.448-54.816 48-62.016 5.12-1.312 10.432-2.272 15.968-2.272h608.064c5.536 0 10.848 0.96 15.968 2.24a64.224 64.224 0 0 1 48 62.048v439.36c0 29.92-20.48 54.912-48 62.08"  horiz-adv-x="1024" />

    
    <glyph glyph-name="camera" unicode="&#59112;" d="M224 116.288l-0.128 439.712h146.976l45.856 106.048c1.856 4.256 10.496 9.952 15.136 9.952h192.288c4.768 0 13.248-5.6 15.136-9.92l45.856-106.08 146.88-0.32 0.032-439.68L224 116.32zM832.032 620h-104.832l-29.184 67.52C686.016 715.104 654.272 736 624.128 736h-192.288c-30.144 0-61.888-20.864-73.856-48.544l-29.184-67.456H223.968A64.224 64.224 0 0 1 160 555.68v-439.36c0-35.488 28.672-64.32 63.968-64.32h608.064A64.192 64.192 0 0 1 896 116.32v439.36c0 35.456-28.704 64.32-63.968 64.32zM528 256c-52.928 0-96 43.072-96 96s43.072 96 96 96 96-43.072 96-96-43.072-96-96-96m0 256c-88.224 0-160-71.776-160-160s71.776-160 160-160 160 71.776 160 160-71.776 160-160 160"  horiz-adv-x="1024" />

    
    <glyph glyph-name="clock" unicode="&#59113;" d="M512 82.752c-158.784 0-288 129.216-288 288s129.216 288 288 288 288-129.216 288-288-129.216-288-288-288m0 640c-194.08 0-352-157.92-352-352 0-101.856 43.744-193.472 113.152-257.824a31.04 31.04 0 0 1-13.248-7.552l-58.528-58.56a31.968 31.968 0 1 1 45.248-45.216l58.528 58.528a31.584 31.584 0 0 1 8.832 19.84A349.664 349.664 0 0 1 512 18.752c71.328 0 137.664 21.44 193.152 58.048a31.04 31.04 0 0 1 8.224-16.672l58.528-58.56a31.904 31.904 0 0 1 45.248 0 32 32 0 0 1 0 45.28l-58.528 58.528a31.36 31.36 0 0 1-9.28 6.176C819.616 175.936 864 268.16 864 370.752c0 194.08-157.92 352-352 352M544 376.896v185.856a32 32 0 0 1-64 0v-199.104c0-8.48 3.36-16.64 9.376-22.624l107.296-107.296a31.904 31.904 0 0 1 45.248 0 32 32 0 0 1 0 45.248L544 376.896zM182.624 609.6l90.528 90.56a32 32 0 0 1-45.248 45.216L137.376 654.848A31.968 31.968 0 1 1 182.624 609.6M883.872 668.128l-90.496 90.496a31.968 31.968 0 1 1-45.248-45.248l90.496-90.496a31.904 31.904 0 0 1 45.248 0 31.968 31.968 0 0 1 0 45.248"  horiz-adv-x="1024" />

    
    <glyph glyph-name="collection_fill" unicode="&#59114;" d="M877.632 439.2c14.976 14.72 20.384 32.96 14.816 49.984-5.536 17.024-20.608 28.544-41.344 31.584l-190.24 27.84c-6.976 1.024-18.464 9.472-21.6 15.904l-85.12 173.696c-9.28 18.944-24.896 29.76-42.88 29.76-17.952 0-33.6-10.816-42.816-29.76l-85.12-173.696c-3.104-6.432-14.592-14.848-21.6-15.904l-190.24-27.84c-20.704-3.04-35.776-14.56-41.344-31.584-5.568-17.024-0.16-35.232 14.816-49.984l137.696-135.232c5.088-4.992 9.536-18.816 8.32-25.92l-32.48-190.912c-3.552-20.832 2.752-38.816 17.344-49.344 7.52-5.44 16.224-8.16 25.472-8.16 8.576 0 17.6 2.336 26.56 7.04l170.176 90.176c6.048 3.2 20.448 3.2 26.528 0l170.144-90.112c18.528-9.856 37.504-9.44 52.064 1.056 14.56 10.528 20.864 28.48 17.344 49.28l-32.48 190.976c-1.28 7.104 3.2 20.928 8.32 25.92l137.664 135.232z"  horiz-adv-x="1024" />

    
    <glyph glyph-name="collection" unicode="&#59115;" d="M695.104 349.632c-20.16-19.808-31.328-54.4-26.56-82.368l26.976-158.56-140.992 74.688c-25.056 13.248-61.408 13.28-86.464 0l-140.992-74.656 27.008 158.56c4.736 27.904-6.464 62.528-26.56 82.336l-114.56 112.512 158.08 23.136c27.936 4.096 57.312 25.6 69.792 51.04l70.464 143.872 70.464-143.872c12.512-25.472 41.856-46.944 69.824-51.04l158.08-23.136-114.56-112.512z m182.528 89.536c14.976 14.72 20.384 32.96 14.816 50.016-5.536 17.024-20.64 28.512-41.344 31.552l-190.272 27.872c-6.944 1.024-18.432 9.472-21.6 15.872l-85.088 173.76c-9.248 18.88-24.896 29.76-42.88 29.76-17.92 0-33.568-10.88-42.848-29.76l-85.056-173.76c-3.136-6.4-14.656-14.848-21.632-15.872l-190.272-27.84c-20.704-3.072-35.744-14.56-41.28-31.584-5.6-17.024-0.192-35.264 14.784-50.016L282.624 304c5.12-5.024 9.6-18.848 8.352-25.92l-32.512-190.944c-3.52-20.8 2.784-38.816 17.344-49.344 7.52-5.44 16.256-8.16 25.472-8.16 8.576 0 17.632 2.368 26.56 7.104l170.176 90.144c6.08 3.2 20.48 3.2 26.56 0l170.144-90.144c18.496-9.824 37.504-9.408 52.032 1.056 14.56 10.56 20.896 28.512 17.376 49.312l-32.512 190.976c-1.216 7.072 3.232 20.896 8.32 25.92l137.696 135.2z"  horiz-adv-x="1024" />

    
    <glyph glyph-name="computer_fill" unicode="&#59116;" d="M221.216 308H160v-75.712c0-35.456 27.424-64.288 61.184-64.288h260.192v-52h-91.808c-16.896 0-30.624-14.336-30.624-32 0-17.696 13.728-32 30.624-32h244.864c16.896 0 30.624 14.304 30.624 32 0 17.664-13.728 32-30.624 32h-91.808V168h260.192c33.76 0 61.184 28.832 61.184 64.288v75.712H221.216zM802.816 736H221.184C187.424 736 160 707.136 160 671.68v-299.68h704V671.68C864 707.136 836.576 736 802.816 736"  horiz-adv-x="1024" />

    
    <glyph glyph-name="computer" unicode="&#59117;" d="M221.216 232.32v75.68h581.6v-76l-581.6 0.32zM802.784 671.68v-299.68H221.248V672l581.568-0.32z m0 64.32H221.216C187.424 736 160 707.136 160 671.68v-439.36c0-35.488 27.424-64.32 61.184-64.32h260.192v-52h-91.84c-16.864 0-30.592-14.336-30.592-32 0-17.696 13.728-32 30.624-32h244.864c16.896 0 30.624 14.304 30.624 32 0 17.664-13.728 32-30.624 32h-91.84V168h260.224c33.76 0 61.184 28.832 61.184 64.32V671.68C864 707.136 836.576 736 802.816 736z"  horiz-adv-x="1024" />

    
    <glyph glyph-name="coordinates_fill" unicode="&#59118;" d="M384 479.968c0 70.592 57.408 128 128 128s128-57.408 128-128-57.408-128-128-128-128 57.408-128 128m128.32 288h-0.64c-158.624-0.16-287.68-129.312-287.68-288 0-80.512 64.032-195.008 126.72-288a2026.4 2026.4 0 0 1 116.512-155.584 57.92 57.92 0 0 1 44.8-21.856h0.096a57.504 57.504 0 0 1 44.512 21.696 2024.256 2024.256 0 0 1 116.64 155.744c62.688 92.992 126.72 207.488 126.72 288 0 158.688-129.056 287.84-287.68 288"  horiz-adv-x="1024" />

    
    <glyph glyph-name="coordinates" unicode="&#59119;" d="M512 82.688C445.568 163.072 288 375.936 288 480c0 123.488 100.48 224 224 224s224-100.512 224-224c0-103.776-156.96-316.064-224-397.344M512 768c-158.784 0-288-129.184-288-288 0-148.416 217.696-413.088 243.232-443.616a57.92 57.92 0 0 1 44.8-21.856h0.096a57.6 57.6 0 0 1 44.512 21.696C581.536 65.984 800 331.328 800 480c0 158.816-129.216 288-288 288M512 416c-35.296 0-64 28.704-64 64s28.704 64 64 64 64-28.704 64-64-28.704-64-64-64m0 192c-70.592 0-128-57.408-128-128s57.408-128 128-128 128 57.408 128 128-57.408 128-128 128"  horiz-adv-x="1024" />

    
    <glyph glyph-name="createtask_fill" unicode="&#59120;" d="M680.608 512h-224a32 32 0 1 0 0 64h224a32 32 0 1 0 0-64m0-160h-224a32 32 0 1 0 0 64h224a32 32 0 1 0 0-64m0-160h-224a32 32 0 1 0 0 64h224a32 32 0 1 0 0-64m-328.64 320a32 32 0 1 0 0 64 32 32 0 0 0 0-64m0-160a32.032 32.032 0 0 0 0 64 32 32 0 0 0 0-64m0-160a32.032 32.032 0 0 0 0 64 32 32 0 0 0 0-64M799.872 736H223.68A63.776 63.776 0 0 1 160 672.256v-576.512C160 60.608 188.608 32 223.776 32h576.512a63.776 63.776 0 0 1 63.68 63.744V672.256A64 64 0 0 1 799.872 736"  horiz-adv-x="1024" />

    
    <glyph glyph-name="createtask" unicode="&#59121;" d="M544 95.872l-320-0.16-0.064 96.32-0.064 160-0.032 64-0.096 160-0.032 96h576.128L800 672.224 800.256 96 544 95.872zM799.84 736H223.712A63.808 63.808 0 0 1 160 672.256v-576.544c0-35.136 28.608-63.68 63.744-63.68h576.512A63.808 63.808 0 0 1 864 95.68V672.256A64 64 0 0 1 799.84 736zM680.608 576h-224a32 32 0 0 1 0-64h224a32 32 0 0 1 0 64M680.608 416h-224a32 32 0 0 1 0-64h224a32 32 0 0 1 0 64M680.608 256h-224a32 32 0 0 1 0-64h224a32 32 0 0 1 0 64M352 576a32 32 0 1 1 0-64 32 32 0 0 1 0 64M352 416a32 32 0 1 1 0-64 32 32 0 0 1 0 64M352 256a32 32 0 1 1 0-64 32 32 0 0 1 0 64"  horiz-adv-x="1024" />

    
    <glyph glyph-name="customerservice_fill" unicode="&#59122;" d="M799.68 480H736v64.16C736 667.584 635.52 768 512 768s-224-100.416-224-223.84V480H224.32C188.864 480 160 451.328 160 416.096v-192.192C160 188.672 188.864 160 224.32 160h94.784c0.288 0 0.576-0.192 0.896-0.192 0.32 0 0.608 0.192 0.928 0.192h31.04V544.16A160.128 160.128 0 0 0 512 704c88.256 0 160-71.712 160-159.84v-384.352c0-34.112-8.32-58.24-25.504-73.696-16.576-14.848-42.912-22.816-78.144-24.256A63.776 63.776 0 0 1 512 96a64 64 0 0 1 0-128c22.816 0 42.72 12 54.048 29.984 53.312 1.408 94.24 14.528 123.168 40.544 31.04 27.872 46.784 68.704 46.784 121.28V160h63.68A64.192 64.192 0 0 1 864 223.904v192.192A64.192 64.192 0 0 1 799.68 480"  horiz-adv-x="1024" />

    
    <glyph glyph-name="customerservice" unicode="&#59123;" d="M799.68 224H736v192h63.68l0.32 0.096L799.68 224zM288 223.968l-64-0.064L224.32 416H288V223.968zM799.68 480H736v64.192C736 667.584 635.52 768 512 768s-224-100.416-224-223.808V480H224.32C188.864 480 160 451.328 160 416.096v-192.192C160 188.672 188.864 160 224.32 160h94.848c0.288 0 0.544-0.16 0.832-0.16 0.32 0 0.544 0.16 0.864 0.16H352V544.192A160.064 160.064 0 0 0 512 704c88.224 0 160-71.68 160-159.808V159.84c0-34.144-8.352-58.24-25.536-73.664-16.544-14.88-42.912-22.944-78.144-24.384A63.68 63.68 0 0 1 512 96a64 64 0 0 1 0-128c22.816 0 42.72 12.032 54.048 29.984 53.312 1.44 94.208 14.56 123.2 40.576 31.04 27.872 46.72 68.672 46.72 121.28V160h63.744A64.16 64.16 0 0 1 864 223.904v192.192A64.16 64.16 0 0 1 799.68 480z"  horiz-adv-x="1024" />

    
    <glyph glyph-name="delete_fill" unicode="&#59124;" d="M649.824 291.424a31.968 31.968 0 1 0-45.248-45.248L505.6 345.152l-98.976-98.976a31.904 31.904 0 0 0-45.248 0 32 32 0 0 0 0 45.248l98.976 98.976-98.976 98.976a32 32 0 0 0 45.248 45.248l98.976-98.976 98.976 98.976a32 32 0 0 0 45.248-45.248L550.848 390.4l98.976-98.976zM512 768C300.288 768 128 595.712 128 384c0-211.744 172.288-384 384-384 211.744 0 384 172.256 384 384 0 211.712-172.256 384-384 384z"  horiz-adv-x="1024" />

    
    <glyph glyph-name="delete" unicode="&#59125;" d="M512 64c-176.448 0-320 143.552-320 320S335.552 704 512 704s320-143.552 320-320-143.552-320-320-320m0 704C300.256 768 128 595.744 128 384s172.256-384 384-384 384 172.256 384 384S723.744 768 512 768M649.824 534.624a31.968 31.968 0 0 1-45.248 0L505.6 435.648l-98.976 98.976a31.968 31.968 0 1 1-45.248-45.248l98.976-98.976-98.976-98.976a32 32 0 0 1 45.248-45.248l98.976 98.976 98.976-98.976a31.904 31.904 0 0 1 45.248 0 31.968 31.968 0 0 1 0 45.248L550.848 390.4l98.976 98.976a31.968 31.968 0 0 1 0 45.248"  horiz-adv-x="1024" />

    
    <glyph glyph-name="document" unicode="&#59126;" d="M224 64.064V703.904L223.808 704H576v-159.936c0-35.328 28.736-64.064 64.064-64.064h159.712c0.032-0.512 0.224-1.184 0.224-1.664L800.256 64 224 64.064zM757.664 544L640 544.064V671.872L757.664 544z m76.064 11.872l-163.872 178.08C651.712 753.664 619.264 768 592.672 768H223.808A64.032 64.032 0 0 1 160 703.904v-639.84A64 64 0 0 1 223.744 0h576.512A64 64 0 0 1 864 64.128V478.336c0 25.856-12.736 58.464-30.272 77.536zM640 384h-256a32 32 0 0 1 0-64h256a32 32 0 0 1 0 64M640 224h-256a32 32 0 0 1 0-64h256a32 32 0 0 1 0 64"  horiz-adv-x="1024" />

    
    <glyph glyph-name="document_fill" unicode="&#59127;" d="M833.728 555.872l-163.904 178.144c-7.744 8.448-18.4 15.552-29.824 21.28v-211.2l202.4-0.064c-2.752 4.192-5.536 8.448-8.64 11.84M640 320h-256a32 32 0 1 0 0 64h256a32 32 0 1 0 0-64m0-160h-256a32 32 0 1 0 0 64h256a32 32 0 1 0 0-64m223.808 320h-223.744A64.128 64.128 0 0 0 576 544.128V768H223.808A64 64 0 0 1 160 703.936v-639.84A64 64 0 0 1 223.744 0h576.512A64 64 0 0 1 864 64.16V478.368c0 0.544-0.16 1.12-0.192 1.664"  horiz-adv-x="1024" />

    
    <glyph glyph-name="editor" unicode="&#59128;" d="M489.376 361.376a31.904 31.904 0 0 1 45.248 0l304 304a31.968 31.968 0 1 1-45.248 45.248l-304-304a31.968 31.968 0 0 1 0-45.248M832 416a32 32 0 0 1-32-32l0.256-288L224 95.744 223.744 672H512a32 32 0 0 1 0 64H223.744A63.84 63.84 0 0 1 160 672.256v-576.512C160 60.608 188.608 32 223.744 32h576.512A63.84 63.84 0 0 1 864 95.744V384a32 32 0 0 1-32 32"  horiz-adv-x="1024" />

    
    <glyph glyph-name="emoji_fill" unicode="&#59129;" d="M712.32 272a224.8 224.8 0 0 0-193.984-112 224.928 224.928 0 0 0-194.048 111.936 32 32 0 1 0 55.392 32.064 160.736 160.736 0 0 1 138.656-80 160.608 160.608 0 0 1 138.592 80 32 32 0 0 0 55.392-32zM352 512a32 32 0 1 0 64 0v-96a32 32 0 1 0-64 0v96z m256 0a32 32 0 1 0 64 0v-96a32 32 0 1 0-64 0v96z m-96 256C300.256 768 128 595.68 128 384c0-211.744 172.256-384 384-384 211.712 0 384 172.256 384 384 0 211.712-172.288 384-384 384z"  horiz-adv-x="1024" />

    
    <glyph glyph-name="emoji" unicode="&#59130;" d="M512 64c-176.448 0-320 143.552-320 320S335.552 704 512 704s320-143.552 320-320-143.552-320-320-320m0 704C300.256 768 128 595.744 128 384s172.256-384 384-384 384 172.256 384 384S723.744 768 512 768M700.64 315.712a32 32 0 0 1-43.712-11.68A160.608 160.608 0 0 0 518.304 224a160.576 160.576 0 0 0-138.592 80 32 32 0 0 1-55.424-32.032 224.896 224.896 0 0 1 194.016-112 224.768 224.768 0 0 1 194.016 112 32 32 0 0 1-11.68 43.744M384 384a32 32 0 0 1 32 32v96a32 32 0 0 1-64 0v-96a32 32 0 0 1 32-32M640 384a32 32 0 0 1 32 32v96a32 32 0 0 1-64 0v-96a32 32 0 0 1 32-32"  horiz-adv-x="1024" />

    
    <glyph glyph-name="empty" unicode="&#59131;" d="M590.208 441.824v-210.496a32 32 0 1 1 64 0v210.496a32 32 0 1 1-64 0M398.208 441.824v-210.496a32 32 0 1 1 64 0v210.496a32 32 0 1 1-64 0M377.664 636.416l-8.896 63.36 253.504 35.648 8.928-63.392-253.536-35.616z m443.616 62.336l-126.72-17.792-11.872 84.416a36.512 36.512 0 0 1-14.432 24.224c-16.416 12.384-41.28 11.072-54.752 9.216L359.68 763.136c-46.592-6.56-60.16-30.688-57.28-51.072l11.84-84.544-126.72-17.824a32 32 0 1 1 8.928-63.36l45.92 6.432a31.36 31.36 0 0 1-4.192-14.976v-447.936c0-35.328 28.704-64.032 64-64.032h447.968a64.096 64.096 0 0 1 64 64.032V537.792a32 32 0 1 1-64 0v-447.968l-448 0.032V537.792a31.744 31.744 0 0 1-8.992 22.112l537.056 75.488a32 32 0 0 1 27.2 36.16 31.648 31.648 0 0 1-36.16 27.2z"  horiz-adv-x="1024" />

    
    <glyph glyph-name="empty_fill" unicode="&#59132;" d="M821.344 698.752l-126.752-17.824-11.904 84.512a36.48 36.48 0 0 1-14.464 24.192c-16.416 12.384-41.376 11.072-54.688 9.152l-253.792-35.648c-46.624-6.56-60.16-30.688-57.312-51.072l11.008-78.24 0.896-6.336-76.128-10.688-50.656-7.136a32 32 0 1 1 8.928-63.36l23.552 3.328 18.176 2.528 4.224 0.608 50.752 7.136 63.936 8.992 73.088 10.272 192 26.976 192 27.008 16.032 2.24c17.504 2.432 29.696 18.624 27.232 36.128s-18.528 29.76-36.128 27.232zM398.208 441.792a32 32 0 0 0 64 0v-210.496a32 32 0 0 0-64 0v210.496z m192 0a32 32 0 0 0 64 0v-210.496a32 32 0 0 0-64 0v210.496z m-352 40.736v-392.704c0-20.608 9.984-38.816 25.184-50.56 10.816-8.32 24.192-13.44 38.848-13.44h447.936a63.36 63.36 0 0 1 38.816 13.44c15.232 11.712 25.216 29.888 25.216 50.56V501.824H237.344l0.864-19.328z"  horiz-adv-x="1024" />

    
    <glyph glyph-name="enter" unicode="&#59133;" d="M693.792 397.76l-320 297.664a32 32 0 0 1-43.584-46.848l295.36-274.752-295.84-286.848a31.968 31.968 0 1 1 44.544-45.92l320 310.272a31.968 31.968 0 0 1-0.48 46.4"  horiz-adv-x="1024" />

    
    <glyph glyph-name="enterinto" unicode="&#59134;" d="M512 64c-176.448 0-320 143.552-320 320S335.552 704 512 704s320-143.552 320-320-143.552-320-320-320m0 704C300.256 768 128 595.744 128 384s172.256-384 384-384 384 172.256 384 384S723.744 768 512 768M469.376 535.808a31.968 31.968 0 1 1-42.752-47.616l134.016-120.32-134.496-125.856a32 32 0 0 1 43.712-46.72l160 149.696a31.968 31.968 0 0 1-0.48 47.168l-160 143.68z"  horiz-adv-x="1024" />

    
    <glyph glyph-name="enterinto_fill" unicode="&#59135;" d="M629.856 345.024l-160-149.76a31.904 31.904 0 0 0-45.216 1.504 31.936 31.936 0 0 0 1.504 45.216l134.496 125.888-134.016 120.32a32 32 0 1 0 42.752 47.616l160-143.616a31.904 31.904 0 0 0 0.48-47.168M512 768C300.256 768 128 595.744 128 384c0-211.712 172.256-384 384-384s384 172.288 384 384c0 211.744-172.256 384-384 384"  horiz-adv-x="1024" />

    
    <glyph glyph-name="feedback_fill" unicode="&#59136;" d="M544 314.304v-15.488a32 32 0 1 0-64 0V336c0 14.848 10.304 26.752 24 30.4 72.032 30.08 72.064 74.688 72 76.608l-0.032 49.184c0 28.544-28.704 51.84-64 51.84-35.264 0-63.968-23.296-63.968-51.84v-15.584a32 32 0 0 0-64 0v15.584c0 63.84 57.408 115.84 127.968 115.84 70.592 0 128-52 128-115.84v-47.584c0.16-1.28 4.672-80.768-95.968-130.304M512 160a32 32 0 1 0 0 64 32 32 0 0 0 0-64m0 608C300.256 768 128 595.712 128 384c0-211.744 172.256-384 384-384s384 172.256 384 384c0 211.712-172.256 384-384 384"  horiz-adv-x="1024" />

    
    <glyph glyph-name="feedback" unicode="&#59137;" d="M704 128.608A318.016 318.016 0 0 0 512 64a318.016 318.016 0 0 0-192 64.608C242.464 187.072 192 279.616 192 384c0 176.448 143.552 320 320 320s320-143.552 320-320c0-104.384-50.464-196.928-128-255.392M512 768C300.256 768 128 595.744 128 384c0-141.76 77.408-265.504 192-332.032A381.312 381.312 0 0 1 511.936 0h0.128A381.312 381.312 0 0 1 704 51.968c114.592 66.528 192 190.272 192 332.032 0 211.744-172.256 384-384 384M639.936 492.16C639.936 556.096 582.528 608 512 608c-70.592 0-128-51.936-128-115.84v-15.52a32 32 0 1 1 64 0v15.552c0 28.576 28.736 51.808 64 51.808 35.296 0 64-23.232 64-51.84v-49.152c0.064-1.536-0.544-31.616-39.808-59.008a169.44 169.44 0 0 0-32.16-17.6 31.584 31.584 0 0 1-24-30.4v-37.184a32 32 0 0 1 64 0v15.488c41.952 20.672 65.696 46.464 79.04 69.696 18.56 32.512 16.992 59.84 16.896 60.64V492.16zM512 224a32 32 0 1 1 0-64 32 32 0 0 1 0 64"  horiz-adv-x="1024" />

    
    <glyph glyph-name="flip" unicode="&#59138;" d="M401.408 384c0 52.928 43.072 96 96 96s96-43.072 96-96-43.072-96-96-96-96 43.072-96 96m256 0c0 88.224-71.776 160-160 160s-160-71.776-160-160 71.776-160 160-160 160 71.776 160 160M890.336 326.112a31.584 31.584 0 0 1-40.928 2.88V671.712a64.128 64.128 0 0 1-63.744 64.32H209.12a63.776 63.776 0 0 1-63.68-63.776v-65.152a32 32 0 1 1 64 0L209.088 672l576.32-0.288V330.56a31.52 31.52 0 0 1-38.624-4.416 31.968 31.968 0 0 1 0-45.248l49.12-49.152a31.968 31.968 0 0 1 45.248 0l49.152 49.152a31.968 31.968 0 0 1 0 45.248M817.408 191.936a32 32 0 0 1-32-32L785.664 96l-576.256 0.32V433.28a31.648 31.648 0 0 1 16.864-5.568 31.968 31.968 0 0 1 22.624 54.624L199.776 531.52a32 32 0 0 1-45.248 0l-49.152-49.152a31.968 31.968 0 0 1 0-45.248 31.552 31.552 0 0 1 40-3.456V96.32c0-35.456 28.64-64.32 63.776-64.32h576.512a63.936 63.936 0 0 1 63.744 64v64a32 32 0 0 1-32 32"  horiz-adv-x="1024" />

    
    <glyph glyph-name="fullscreen" unicode="&#59139;" d="M409.376 342.624L224 157.248V288a32 32 0 0 1-64 0v-192.544c0-3.488 0.48-6.848 1.024-10.176a31.456 31.456 0 0 1 8.352-27.904c2.336-2.336 5.152-3.808 7.904-5.248 11.648-12.48 28.096-20.384 46.464-20.384h192.512a32 32 0 1 1 0 64l-163.488-0.224 201.856 201.856a31.968 31.968 0 1 1-45.248 45.248M800.512 736H608a32 32 0 0 1 0-64l146.944 0.192-201.568-201.568a31.968 31.968 0 1 1 45.248-45.248l201.632 201.632v-147.264a32 32 0 1 1 64 0V672.256A63.84 63.84 0 0 1 800.512 736"  horiz-adv-x="1024" />

    
    <glyph glyph-name="group" unicode="&#59140;" d="M864 51.232a2.464 2.464 0 0 0-1.504-0.704L288 51.904V169.92c0 5.824 6.016 14.944 12.096 17.44C301.664 188 456.992 256 576 256c118.752 0 274.336-68 276.864-69.088 5.216-2.08 11.136-11.168 11.136-17.024v-118.656zM480.48 455.2v104.736A112.064 112.064 0 0 0 592.256 672 112 112 0 0 0 704 559.936v-104.736a112 112 0 0 0-111.744-112.064 112 112 0 0 0-111.776 112.064z m397.248-209.28c-4.992 2.176-92.64 40.384-191.008 61.056A176 176 0 0 1 768 455.2v104.736C768 657.024 689.152 736 592.256 736c-96.928 0-175.776-78.976-175.776-176.064v-104.736c0-59.136 29.344-111.456 74.112-143.36-108.16-18.72-210.752-63.488-215.552-65.6C245.952 234.24 224 201.44 224 169.856v-126.4h0.544a65.536 65.536 0 0 1 64.96-56.96h572.992c28.672 0 54.304 18.752 63.808 46.72l1.696 4.96V169.92c0 31.808-22.016 64.672-50.272 76zM360.384 322.56c1.024 0 1.952-0.288 2.976-0.288a32 32 0 1 1 0 64A68.736 68.736 0 0 0 294.72 455.04v84.256C294.72 577.152 325.504 608 363.36 608a32 32 0 0 1 0 64 132.832 132.832 0 0 1-132.64-132.736v-84.256c0-32.736 12.352-62.368 32.064-85.536-62.72-19.296-117.536-49.696-127.584-55.456C112.352 303.2 96 277.312 96 251.552v-91.904a32 32 0 1 1 64 0v91.744a11.424 11.424 0 0 0 2.336 4.672 28.992 28.992 0 0 1 3.584 1.824c30.432 17.728 123.84 63.712 189.76 63.712 1.632 0 3.104 0.704 4.704 0.96"  horiz-adv-x="1024" />

    
    <glyph glyph-name="group_fill" unicode="&#59141;" d="M877.728 245.888c-4.992 2.208-92.64 40.416-191.04 61.088A176 176 0 0 1 768 455.2v104.736C768 657.024 689.184 736 592.288 736a175.168 175.168 0 0 1-131.584-59.712 175.424 175.424 0 0 1-44.192-116.352v-104.736c0-59.136 29.344-111.456 74.112-143.392-108.16-18.688-210.752-63.456-215.552-65.6C245.92 234.272 224 201.472 224 169.888v-126.4h0.544a65.536 65.536 0 0 1 64.96-56.96h572.992c28.672 0 54.304 18.752 63.808 46.688l1.696 4.992v131.68c0 31.808-22.016 64.672-50.272 76M322.432 318.112c34.976 10.912 51.552 17.024 51.552 17.024s22.656 9.984 16.672 29.984c-14.016 26.688-24 47.36-24 125.344V591.808s6.016 49.312 24.992 53.984c1.536 1.632 1.792 4.032 1.12 6.72a31.936 31.936 0 0 1-29.408 19.52 132.832 132.832 0 0 1-132.64-132.768v-84.256c0-32.736 12.352-62.368 32.064-85.536-62.72-19.296-117.536-49.696-127.584-55.456C112.352 303.2 96 277.312 96 251.552v-91.904a32 32 0 0 1 32-32 31.68 31.68 0 0 1 31.296 28.48c0.128 1.184 0.704 2.272 0.704 3.52v14.656c2.56 30.304 13.92 85.312 60.992 111.072 7.2 3.2 14.88 6.336 22.72 9.44a2978.88 2978.88 0 0 1 78.72 23.296"  horiz-adv-x="1024" />

    
    <glyph glyph-name="homepage_fill" unicode="&#59142;" d="M640 105.472H297.504v0.096l86.496-0.032v118.88c0 0.8 0.224 1.536 0.224 2.304 1.28 69.6 57.984 125.888 127.776 125.888s126.496-56.32 127.776-125.888c0-0.768 0.224-1.504 0.224-2.304v-118.944z m240.896 427.68L800 586.144V688.832a32 32 0 1 1-64 0v-60.8l-206.464 135.328A31.296 31.296 0 0 1 511.424 768a31.168 31.168 0 0 1-17.6-4.64L142.464 533.12a32 32 0 0 1 35.072-53.536L192 489.088V96c0-30.08 27.168-54.592 60.576-54.592h518.848C804.832 41.44 832 65.92 832 96V488.64l13.856-9.056a31.968 31.968 0 0 1 35.04 53.536z"  horiz-adv-x="1024" />

    
    <glyph glyph-name="homepage" unicode="&#59143;" d="M768 105.44l-128 0.032v118.944a128.224 128.224 0 0 1-128 128.192c-70.592 0-128-57.504-128-128.192v-118.88l-128 0.032V531.008l255.68 167.52L768 530.624v-425.184z m-192 0.032l-128 0.032v118.912c0 35.392 28.704 64.192 64 64.192s64-28.8 64-64.192v-118.944z m304.896 427.68L800 586.144V688.832a32 32 0 1 1-64 0v-60.768l-206.464 135.296A31.296 31.296 0 0 1 511.424 768a31.168 31.168 0 0 1-17.6-4.64l-351.36-230.208a32 32 0 0 1 35.072-53.536L192 489.088v-393.056c0-30.08 27.2-54.592 60.576-54.592h518.848c33.408 0 60.576 24.512 60.576 54.592v392.64l13.856-9.056a31.968 31.968 0 0 1 35.04 53.536z"  horiz-adv-x="1024" />

    
    </font>
</defs>
</svg>
